<?xml version="1.0" encoding="UTF-8"?>
<svg xmlns="http://www.w3.org/2000/svg" version="1.1" xmlns:inkscape="http://www.inkscape.org/namespaces/inkscape" xmlns:sodipodi="http://sodipodi.sourceforge.net/DTD/sodipodi-0.dtd" xmlns:svg="http://www.w3.org/2000/svg" viewBox="0 0 194.5 191.3">
  <defs>
    <style>
      .cls-1 {
        fill: #21285a;
        fill-rule: evenodd;
      }
    </style>
  </defs>
  <!-- Generator: Adobe Illustrator 28.7.4, SVG Export Plug-In . SVG Version: 1.2.0 Build 166)  -->
  <g>
    <g id="Layer_1">
      <g>
        <sodipodi:namedview id="namedview6" bordercolor="#000000" borderopacity="0.25" inkscape:current-layer="g5" inkscape:cx="483.68496" inkscape:cy="382.93054" inkscape:deskcolor="#d1d1d1" inkscape:pagecheckerboard="0" inkscape:pageopacity="0.0" inkscape:showpageshadow="2" inkscape:window-height="1369" inkscape:window-maximized="1" inkscape:window-width="2560" inkscape:window-x="1072" inkscape:window-y="300" inkscape:zoom="1.5681695" pagecolor="#ffffff" showguides="true"/>
        <path id="path4" class="cls-1" d="M86.6,116.9c1,1.7,2,3.3,2.8,4.9,5.5-5.5,11.1-11.1,16.5-16.4-1.2-1.3-2.5-2.7-3.8-4l-15.6,15.6ZM117.1,106.5c-5.5-5.5-11.1-11.1-16.6-16.6-1.2,1.2-2.5,2.5-3.8,3.8,5.2,5.2,10.4,10.4,15.6,15.6,1.7-.9,3.3-2,4.8-2.8h0ZM90.5,87.8c1.5-1.5,2.8-2.8,4.2-4.2-1.2-1.2-2.5-2.4-3.8-3.7-4.6-4.9-10-8.7-16.6-10.3-1.1-.2-2.1-.4-3.2-.7v5.9c5.5,1,10,3.4,13.7,7.2,1.8,1.9,3.7,3.9,5.6,5.8h0ZM78.9,101.4c-7.1,6.3-13.5,13.2-14.6,23.5h3.9c1.7,0,1.7-.1,2.2-1.9,0,0,0,0,0-.1,1.5-5.2,4.2-9.5,8.2-13.1,1.5-1.5,3-2.8,4.4-4.2-1.5-1.5-2.8-2.8-4.1-4.1h0ZM112.4,99.3c1.5-1.5,2.9-2.9,4.4-4.4,2.3-2.3,4.5-4.8,6.2-7.6,2.1-3.6,3.4-7.3,4-11.6-1.3,0-2.6,0-3.9,0-1.7.1-1.7.2-2.3,2,0,0,0,.2,0,.3-1.5,5-4.1,9.2-8,12.8-1.5,1.4-3.1,2.9-4.6,4.4,1.5,1.5,2.8,2.8,4.2,4.1h0ZM96.7,116.9c6.4,7.2,13.2,13.6,23.4,14.7v-4.9c0-.7-.2-.9-.9-1-4-.9-7.6-2.5-10.7-5.2-1.7-1.5-3.4-3.2-5.1-4.8-.9-.9-1.8-1.8-2.7-2.7-1.5,1.4-2.8,2.7-4.1,3.9h0ZM127.1,67.3c-.9-10.3-8.3-20.5-17.2-24.8-15,14.3-11.8,36.5,2.5,47,1.2-1.4,2.4-2.8,3.7-4.3-5.6-4.4-9-9.8-10-16.6-1-6.8.7-13.1,4.9-18.7,5.7,4.5,9.2,10.3,10.4,17.4,1.9,0,3.8,0,5.7,0h0ZM110.8,120.7c4.4-5.5,9.8-8.9,16.6-10,6.8-1,13.1.7,18.7,4.9-4.5,5.7-10.3,9.2-17.4,10.4v5.7c8.6-.5,19.6-6.8,24.8-17.1-12.9-14-35.3-13-47.1,2.3,1.5,1.2,2.8,2.5,4.4,3.8h0ZM64.2,133.3c0,.4,0,.7,0,1,.9,5.8,3.2,11,6.9,15.5,2.7,3.3,5.9,6,9.6,8.1.5.3.7.2,1.2-.1,2.6-2.8,4.9-5.7,6.5-9.2,2.5-5.7,3.5-11.6,2.5-17.7-.9-5.6-3.1-10.6-6.8-14.9-1.5-1.7-3.2-3.2-4.9-4.9-1.4,1.6-2.6,3.1-3.9,4.4,13.7,10.8,11.6,27.5,4.9,35.3-5.7-4.5-9.2-10.3-10.3-17.4-2,0-3.8,0-5.7,0ZM37.7,86c14.5,15.4,37.3,11.6,47.1-2.4-1.4-1.2-2.8-2.4-4.2-3.6-10.7,14-27.9,11.3-35.3,5,4.4-5.7,10.3-9.2,17.3-10.3v-5.8c-11.1,1.7-19.3,7.4-24.9,17.2h0ZM80.2,122.5c-14.5,8.5-29.5,1.3-34.9-6.9,3-2.5,8-4.5,11.9-4.9,3.3-.4,6.5-.2,9.8.7.3,0,.8,0,.9-.1,1.2-1.5,2.3-3,3.4-4.4-12.4-5-26.1-.7-33.6,7.9,2.5,4.8,6.1,8.8,10.6,11.8,6.3,4.2,13.2,6.1,20.7,5.5,4.6-.4,8.9-1.7,12.9-3.9.7-.3.7-.7.4-1.3-.7-1.4-1.5-2.8-2.2-4.3h0ZM89.1,76.1c4.9-12.5.7-25.8-7.9-33.7-.5.4-1,.7-1.6,1-6.6,4-11.2,9.7-13.9,16.9-1.9,5.2-2.4,10.5-1.5,15.9.7,3.6,1.8,7.1,3.7,10.4.1.2.7.6.8.5,1.6-.7,3.2-1.5,4.7-2.3-8.1-13.8-2.3-28.5,6.8-35,2.2,2.3,4.5,7.8,4.9,11.6.4,3.3.2,6.7-.7,10-.1.4-.1.9,0,1.1,1.5,1.2,3,2.3,4.5,3.4h0ZM109.9,158.2q0,0,.1,0c.4-.1.7-.4,1-.6,6.6-3.9,11.3-9.4,14.2-16.5,2.1-5.5,2.7-11.1,1.7-16.8-.6-3.6-1.7-7.1-3.6-10.3-.1-.3-.7-.6-.9-.5-1.6.7-3.2,1.5-4.7,2.3,8.5,14.6,1.4,29.4-7.1,35-.9-1.6-2-3.3-2.7-4.9-2.5-5.4-2.9-11-1.4-16.7.1-.4.1-.9,0-1.1-1.5-1.2-3-2.3-4.4-3.4-4.7,10.9-1.4,25.5,7.8,33.6h0ZM119.9,93.7c11.4,4.9,25.7,1.3,33.7-7.9-.2-.3-.4-.7-.7-1-4.1-7-10-11.8-17.5-14.5-5.1-1.8-10.4-2.3-15.8-1.4-3.6.7-7.1,1.8-10.3,3.6-.4.2-.8.4-.5,1,.8,1.5,1.5,3.1,2.3,4.6,14.7-8.7,29.5-1.2,35,6.8-2.6,2.3-7.6,4.4-11.6,4.9-3.3.4-6.6.3-9.9-.6-.4-.1-1-.1-1.2,0-1.2,1.5-2.3,2.9-3.4,4.4ZM90.6,110.8c1.3-1.3,2.6-2.6,3.9-3.9-5.2-5.2-10.4-10.5-15.6-15.6-1.7.9-3.3,2-4.9,2.9,5.5,5.5,11.1,11.1,16.6,16.6h0ZM95.6,23.5l49.6,18,26.4,45.7-9.2,51.9-40.4,33.9h-52.8l-40.4-33.9-9.2-51.9,26.3-45.7,49.6-18ZM95.6,29.6l45.7,16.7,24.3,42-8.4,47.9-37.2,31.2h-48.7l-37.2-31.2-8.4-47.9,24.3-42,45.7-16.7ZM101.8,78.8c-5.6,5.6-11.2,11.1-16.6,16.5,1.2,1.3,2.5,2.6,3.8,3.9,5.2-5.2,10.4-10.4,15.6-15.6-1-1.7-2-3.3-2.8-4.9Z"/>
      </g>
    </g>
  </g>
</svg>