<?xml version="1.0" encoding="UTF-8"?>
<svg xmlns="http://www.w3.org/2000/svg" version="1.1" xmlns:inkscape="http://www.inkscape.org/namespaces/inkscape" xmlns:sodipodi="http://sodipodi.sourceforge.net/DTD/sodipodi-0.dtd" xmlns:svg="http://www.w3.org/2000/svg" viewBox="0 0 634.2 164.6">
  <defs>
    <style>
      .cls-1 {
        fill: #21285a;
        fill-rule: evenodd;
      }
    </style>
  </defs>
  <!-- Generator: Adobe Illustrator 28.7.4, SVG Export Plug-In . SVG Version: 1.2.0 Build 166)  -->
  <g>
    <g id="Layer_1">
      <g>
        <sodipodi:namedview id="namedview6" bordercolor="#000000" borderopacity="0.25" inkscape:current-layer="g5" inkscape:cx="483.68496" inkscape:cy="382.93054" inkscape:deskcolor="#d1d1d1" inkscape:pagecheckerboard="0" inkscape:pageopacity="0.0" inkscape:showpageshadow="2" inkscape:window-height="1369" inkscape:window-maximized="1" inkscape:window-width="2560" inkscape:window-x="1072" inkscape:window-y="300" inkscape:zoom="1.5681695" pagecolor="#ffffff" showguides="true"/>
        <path id="path2" class="cls-1" d="M330.8,80.3h-20.9c-1.9,12.8-10.2,19.2-24.9,19.2s-30.8-11.6-30.8-32.7,10.9-33.7,30.9-33.7,17.2,3,21.8,8.5c2.9,3.5,4,6.6,4.5,12.7h18v-31.7h-16.6v10.8c-2.3-3.2-3.6-4.6-6.2-6.4-5.7-4-14.9-6.2-25.6-6.2-30,0-48.2,16.9-48.2,44.8s19.1,46.1,52.4,46.1c27.5,0,44.5-11.7,45.6-31.5h0ZM376.5,59.6v-25.1h42.8v14.8h16.6v-26.7h-92.9v11.9h13v63.6h-13v12h92.9v-28h-16.6v16h-42.8v-26.4h18.5v10.4h14v-32.8h-14v10.3h-18.5ZM523.8,110.1h27.2V34.5h12v-11.9h-43.5v11.9h14.8v59.7l-42.6-71.6h-42.5v11.9h12.9v63.6h-12.9v12h44.3v-12h-14.9v-62.3l45.2,74.2ZM588.6,98.1h-13.5v12h48.7v-12h-14.6v-63.6h14.6v-11.9h-48.7v11.9h13.5v63.6ZM188.9,98.1h-13.5v12h48.7v-12h-14.6v-63.6h14.6v-11.9h-48.7v11.9h13.5v63.6h0Z"/>
        <path id="path3" class="cls-1" d="M179.5,124h6.3c1.3,0,2.5.2,3.4.7.9.5,1.5,1.2,2.1,2.1.4.8.8,1.9,1,3,.2,1.2.3,2.5.3,3.8s-.1,2.7-.3,3.9c-.2,1.2-.6,2.3-1,3.4-.6,1-1.2,1.7-2.1,2.2-.8.6-2,.8-3.4.8h-6.3v-19.9ZM207.1,146.8v-13.5c.5-.2,1.1-.5,1.9-.8.7-.3,1.6-.6,2.5-.9.9-.3,1.7-.5,2.6-.7h0v-3.2c-.9.1-1.8.4-2.7.7s-1.7.7-2.4,1.1c-.8.4-1.4.8-1.9,1.1h0v-2.5h-3.3v18.6h3.3ZM223.7,146.8v-18.6h-3.2v18.6h3.2ZM223.7,124.2v-3.5h-3.2v3.5h3.2ZM242.2,146.8l5.4-18.6h-3.5l-4.5,15.9h-1.4l-4.3-15.9h-3.6l5.3,18.6h6.5ZM257.3,146.8v-18.6h-3.3v18.6h3.3ZM257.3,124.2v-3.5h-3.3v3.5h3.3ZM269,146.8v-14.9c.4-.2.9-.4,1.5-.6.6-.2,1.2-.3,1.9-.5.7-.1,1.3-.2,1.9-.2,1.2,0,2.1.2,2.6.6.6.4,1,1.1,1.2,2.1.2.9.2,2.2.2,3.7h0v9.7h3.4v-9.8c0-1.7,0-3.1-.3-4.2-.2-1.2-.6-2.1-1-2.9-.5-.7-1.2-1.2-2.1-1.6-.9-.3-2-.5-3.4-.5s-1.3,0-2.1.3c-.7.2-1.5.3-2.1.6-.7.3-1.3.5-1.7.7h0v-1.2h-3.2v18.6h3.2ZM304,154.1c1.5-.9,2.3-2.5,2.3-4.6s-.2-2.7-.7-3.5c-.5-.8-1.3-1.3-2.4-1.6-1.1-.3-2.6-.4-4.5-.4s-2,0-2.6-.1c-.6,0-1.1-.1-1.4-.2-.3-.1-.6-.3-.6-.4-.1-.2-.2-.5-.2-.9s.1-.4.2-.9c.2-.4.3-.7.4-1.1.2,0,.6,0,1,0,.4,0,.7,0,.9,0,1.7,0,3.1-.2,4.3-.6,1.1-.3,2-1,2.5-1.9.6-1,.9-2.2.9-3.9s-.1-1.6-.4-2.2c-.2-.6-.5-1-.9-1.3h3.6c0,0,0-2.5,0-2.5h-5.9c-.4,0-1.1,0-1.8-.2-.8-.1-1.5-.2-2.2-.2-1.5,0-2.8.2-3.9.6-1.1.4-2,1.1-2.6,2-.6,1-1,2.2-1,3.7s.2,2.1.4,2.9c.3.7.7,1.3,1.1,1.7.4.4,1,.8,1.5,1.1-.2.3-.4.7-.6,1-.2.4-.4.8-.6,1.1-.1.3-.2.6-.2.8,0,.6.1,1.1.3,1.5.2.5.4.8.8,1.1-.7.4-1.3.9-1.7,1.3-.4.4-.8.9-1.1,1.4-.2.5-.3,1.2-.3,1.8,0,1.5.3,2.6.9,3.4.6.8,1.5,1.4,2.7,1.7,1.3.3,2.9.5,5,.5,2.7,0,5-.5,6.5-1.5h0ZM294.2,152.6c-.8-.2-1.3-.6-1.6-1.1-.3-.4-.5-1.1-.5-1.8s.1-.8.2-1.2c.1-.3.3-.7.6-1,.3-.3.7-.6,1.2-1h.7c.3,0,.7,0,1.2,0,.4,0,.8,0,1.2,0h1c1.1,0,2.1.1,2.7.2.7.1,1.2.4,1.5.8.3.4.4,1.1.4,2s-.4,2-1.3,2.5c-1,.5-2.3.8-4.2.8-1.4,0-2.5-.1-3.3-.3h0ZM293.4,137.2c-.7-.6-1-1.6-1-3s.3-2.4,1-3c.6-.6,1.7-.9,3.1-.9s2.7.3,3.4.9c.7.6,1,1.6,1,3s-.3,2.4-1,3c-.7.6-1.8.9-3.4.9s-2.5-.3-3.1-.9ZM342.7,146.3c1.3-.5,2.3-1.4,3.1-2.5.7-1.2,1.1-2.7,1.1-4.6s-.2-2-.4-2.8c-.3-.8-.8-1.5-1.5-2-.7-.5-1.5-1-2.5-1.3-1-.3-2.2-.7-3.6-1-1.5-.3-2.7-.6-3.6-1-1-.3-1.6-.7-2.1-1.3-.4-.6-.6-1.3-.6-2.4s.2-1.6.7-2.2c.4-.6,1.1-1,1.9-1.3.8-.3,1.8-.4,3-.4s1.3,0,2.3.1c.9,0,1.8.1,2.9.2,1,.2,1.9.2,2.7.3h0l.2-2.7c-.7-.1-1.6-.2-2.6-.3-1-.1-2-.2-3-.3-1,0-1.9-.1-2.7-.1-1.8,0-3.4.2-4.6.7-1.3.5-2.3,1.2-3.1,2.2-.7,1-1.1,2.4-1.1,4.1s.1,2.2.5,3c.3.8.8,1.5,1.6,2.1.7.6,1.6,1,2.6,1.3,1.1.3,2.3.7,3.7,1,1.5.2,2.6.6,3.5.8.8.3,1.5.7,1.8,1.3.3.6.6,1.3.6,2.2s-.2,2-.6,2.7c-.4.7-1,1.3-1.8,1.6s-1.8.5-3,.5-1.6,0-2.6-.1c-1,0-2-.1-3-.2-1-.1-2-.2-2.7-.3h0l-.3,2.7c.8.1,1.7.2,2.7.3,1.1.2,2.1.3,3.2.3,1.1.1,2,.2,2.8.2,1.8,0,3.4-.3,4.6-.8h0ZM366,147.1c.7,0,1.3-.1,2.1-.2.7,0,1.3-.2,1.8-.3h0v-2.6c-.6,0-1.1.1-1.6.1-.6,0-1.2.1-1.8.1-.6,0-1.1.1-1.4.1-1.5,0-2.7-.2-3.5-.7-.8-.4-1.3-1.2-1.6-2.2-.3-1-.4-2.5-.4-4.2s.2-2.9.4-3.9c.3-.9.9-1.6,1.7-2.1.8-.4,1.9-.6,3.4-.6h1.4c.6,0,1.1.1,1.7.2.6,0,1.1.1,1.6.2h0v-2.6c-.4,0-1-.2-1.6-.3-.7,0-1.4-.1-2.1-.2-.6,0-1.2,0-1.7,0-1.9,0-3.5.3-4.7.9-1.2.6-2.1,1.6-2.6,3-.6,1.4-.8,3.2-.8,5.5s.2,4.4.7,5.8c.5,1.5,1.3,2.5,2.5,3.1,1.2.7,2.8,1,4.9,1,.4,0,1.1,0,1.7-.1h0ZM380.4,146.8v-15.2c.4-.1.8-.3,1.4-.4.6-.2,1.2-.3,1.9-.4.7-.1,1.3-.1,1.9-.1,1.2,0,2.1.2,2.6.6.5.4.9,1.1,1.1,2.1.2.9.3,2.2.3,3.7h0v9.7h3.3v-9.9c0-1.6,0-3-.3-4.2-.2-1.2-.5-2.1-1-2.9-.5-.7-1.2-1.2-2-1.6-1-.3-2-.5-3.4-.5s-1.3,0-2.1.2c-.7.2-1.5.3-2.1.6-.7.2-1.2.4-1.7.6h0v-9h-3.3v26.7h3.3ZM414,146.1c1.2-.7,2.1-1.8,2.6-3.3.5-1.5.8-3.2.8-5.5s-.3-3.9-.8-5.3-1.5-2.4-2.7-3.1c-1.3-.7-3-1-5-1s-3.7.3-5,1c-1.2.7-2.1,1.7-2.7,3.1s-.8,3.2-.8,5.3.2,4.1.7,5.5c.5,1.5,1.4,2.6,2.6,3.3,1.2.7,3,1.1,5.1,1.1s4-.3,5.1-1.1h0ZM405.5,143.7c-.7-.4-1.2-1.2-1.5-2.3-.2-1.1-.3-2.5-.3-4.1s.2-3,.4-4c.3-1,.8-1.7,1.6-2.1.8-.4,1.8-.6,3.1-.6s2.3.2,3.1.6c.8.4,1.3,1.1,1.6,2.1.3,1,.4,2.3.4,4s-.1,3.1-.3,4.1c-.2,1.1-.7,1.8-1.5,2.3-.7.5-1.8.8-3.3.8-1.5,0-2.6-.3-3.3-.8h0ZM437.7,146.1c1.2-.7,2.1-1.8,2.6-3.3.5-1.5.7-3.2.7-5.5s-.3-3.9-.8-5.3c-.6-1.4-1.5-2.4-2.7-3.1-1.2-.7-2.9-1-5-1s-3.7.3-5,1c-1.3.7-2.2,1.7-2.7,3.1-.5,1.4-.8,3.2-.8,5.3s.2,4.1.7,5.5c.5,1.5,1.3,2.6,2.6,3.3,1.2.7,2.9,1.1,5.1,1.1s3.9-.3,5.1-1.1h0ZM429.2,143.7c-.8-.4-1.2-1.2-1.5-2.3-.2-1.1-.3-2.5-.3-4.1s.1-3,.4-4c.3-1,.8-1.7,1.6-2.1.7-.4,1.8-.6,3.1-.6s2.3.2,3.1.6c.7.4,1.2,1.1,1.6,2.1.3,1,.4,2.3.4,4s-.1,3.1-.4,4.1c-.2,1.1-.7,1.8-1.5,2.3-.7.5-1.8.8-3.2.8s-2.6-.3-3.3-.8ZM452.2,146.8v-26.7h-3.4v26.7h3.4ZM185.9,146.8c2,0,3.6-.3,5-1,1.3-.7,2.3-1.6,3.1-2.9.8-1.2,1.3-2.6,1.6-4.2.3-1.6.4-3.3.4-5.2s-.1-3.6-.4-5.1c-.3-1.5-.9-2.9-1.6-3.9-.8-1.1-1.8-1.9-3.1-2.6-1.3-.6-3-.9-5-.9h-9.8v25.7h9.8Z"/>
        <path id="path4" class="cls-1" d="M70.7,96.9c1,1.7,2,3.3,2.8,4.9,5.5-5.5,11.1-11.1,16.5-16.4-1.2-1.3-2.5-2.7-3.8-4l-15.6,15.6ZM101.3,86.4c-5.5-5.5-11.1-11.1-16.6-16.6-1.2,1.2-2.5,2.5-3.8,3.8,5.2,5.2,10.4,10.4,15.6,15.6,1.7-.9,3.3-2,4.8-2.8h0ZM74.6,67.7c1.5-1.5,2.8-2.8,4.2-4.2-1.2-1.2-2.5-2.4-3.8-3.7-4.6-4.9-10-8.7-16.6-10.3-1.1-.2-2.1-.4-3.2-.7v5.9c5.5,1,10,3.4,13.7,7.2,1.8,1.9,3.7,3.9,5.6,5.8h0ZM63,81.4c-7.1,6.3-13.5,13.2-14.6,23.5h3.9c1.7,0,1.7-.1,2.2-1.9,0,0,0,0,0-.1,1.5-5.2,4.2-9.5,8.2-13.1,1.5-1.5,3-2.8,4.4-4.2-1.5-1.5-2.8-2.8-4.1-4.1h0ZM96.5,79.2c1.5-1.5,2.9-2.9,4.4-4.4,2.3-2.3,4.5-4.8,6.2-7.6,2.1-3.6,3.4-7.3,4-11.6-1.3,0-2.6,0-3.9,0-1.7.1-1.7.2-2.3,2,0,0,0,.2,0,.3-1.5,5-4.1,9.2-8,12.8-1.5,1.4-3.1,2.9-4.6,4.4,1.5,1.5,2.8,2.8,4.2,4.1h0ZM80.8,96.9c6.4,7.2,13.2,13.6,23.4,14.7v-4.9c0-.7-.2-.9-.9-1-4-.9-7.6-2.5-10.7-5.2-1.7-1.5-3.4-3.2-5.1-4.8-.9-.9-1.8-1.8-2.7-2.7-1.5,1.4-2.8,2.7-4.1,3.9h0ZM111.2,47.2c-.9-10.3-8.3-20.5-17.2-24.8-15,14.3-11.8,36.5,2.5,47,1.2-1.4,2.4-2.8,3.7-4.3-5.6-4.4-9-9.8-10-16.6-1-6.8.7-13.1,4.9-18.7,5.7,4.5,9.2,10.3,10.4,17.4,1.9,0,3.8,0,5.7,0h0ZM94.9,100.6c4.4-5.5,9.8-8.9,16.6-10,6.8-1,13.1.7,18.7,4.9-4.5,5.7-10.3,9.2-17.4,10.4v5.7c8.6-.5,19.6-6.8,24.8-17.1-12.9-14-35.3-13-47.1,2.3,1.5,1.2,2.8,2.5,4.4,3.8h0ZM48.3,113.2c0,.4,0,.7,0,1,.9,5.8,3.2,11,6.9,15.5,2.7,3.3,5.9,6,9.6,8.1.5.3.7.2,1.2-.1,2.6-2.8,4.9-5.7,6.5-9.2,2.5-5.7,3.5-11.6,2.5-17.7-.9-5.6-3.1-10.6-6.8-14.9-1.5-1.7-3.2-3.2-4.9-4.9-1.4,1.6-2.6,3.1-3.9,4.4,13.7,10.8,11.6,27.5,4.9,35.3-5.7-4.5-9.2-10.3-10.3-17.4-2,0-3.8,0-5.7,0ZM21.8,65.9c14.5,15.4,37.3,11.6,47.1-2.4-1.4-1.2-2.8-2.4-4.2-3.6-10.7,14-27.9,11.3-35.3,5,4.4-5.7,10.3-9.2,17.3-10.3v-5.8c-11.1,1.7-19.3,7.4-24.9,17.2h0ZM64.3,102.4c-14.5,8.5-29.5,1.3-34.9-6.9,3-2.5,8-4.5,11.9-4.9,3.3-.4,6.5-.2,9.8.7.3,0,.8,0,.9-.1,1.2-1.5,2.3-3,3.4-4.4-12.4-5-26.1-.7-33.6,7.9,2.5,4.8,6.1,8.8,10.6,11.8,6.3,4.2,13.2,6.1,20.7,5.5,4.6-.4,8.9-1.7,12.9-3.9.7-.3.7-.7.4-1.3-.7-1.4-1.5-2.8-2.2-4.3h0ZM73.3,56c4.9-12.5.7-25.8-7.9-33.7-.5.4-1,.7-1.6,1-6.6,4-11.2,9.7-13.9,16.9-1.9,5.2-2.4,10.5-1.5,15.9.7,3.6,1.8,7.1,3.7,10.4.1.2.7.6.8.5,1.6-.7,3.2-1.5,4.7-2.3-8.1-13.8-2.3-28.5,6.8-35,2.2,2.3,4.5,7.8,4.9,11.6.4,3.3.2,6.7-.7,10-.1.4-.1.9,0,1.1,1.5,1.2,3,2.3,4.5,3.4h0ZM94.1,138.1q0,0,.1,0c.4-.1.7-.4,1-.6,6.6-3.9,11.3-9.4,14.2-16.5,2.1-5.5,2.7-11.1,1.7-16.8-.6-3.6-1.7-7.1-3.6-10.3-.1-.3-.7-.6-.9-.5-1.6.7-3.2,1.5-4.7,2.3,8.5,14.6,1.4,29.4-7.1,35-.9-1.6-2-3.3-2.7-4.9-2.5-5.4-2.9-11-1.4-16.7.1-.4.1-.9,0-1.1-1.5-1.2-3-2.3-4.4-3.4-4.7,10.9-1.4,25.5,7.8,33.6h0ZM104,73.7c11.4,4.9,25.7,1.3,33.7-7.9-.2-.3-.4-.7-.7-1-4.1-7-10-11.8-17.5-14.5-5.1-1.8-10.4-2.3-15.8-1.4-3.6.7-7.1,1.8-10.3,3.6-.4.2-.8.4-.5,1,.8,1.5,1.5,3.1,2.3,4.6,14.7-8.7,29.5-1.2,35,6.8-2.6,2.3-7.6,4.4-11.6,4.9-3.3.4-6.6.3-9.9-.6-.4-.1-1-.1-1.2,0-1.2,1.5-2.3,2.9-3.4,4.4ZM74.7,90.8c1.3-1.3,2.6-2.6,3.9-3.9-5.2-5.2-10.4-10.5-15.6-15.6-1.7.9-3.3,2-4.9,2.9,5.5,5.5,11.1,11.1,16.6,16.6h0ZM79.7,3.4l49.6,18,26.4,45.7-9.2,51.9-40.4,33.9h-52.8L13,119,3.8,67.1,30.1,21.4,79.7,3.4ZM79.7,9.5l45.7,16.7,24.3,42-8.4,47.9-37.2,31.2h-48.7l-37.2-31.2-8.4-47.9,24.3-42,45.7-16.7ZM85.9,58.7c-5.6,5.6-11.2,11.1-16.6,16.5,1.2,1.3,2.5,2.6,3.8,3.9,5.2-5.2,10.4-10.4,15.6-15.6-1-1.7-2-3.3-2.8-4.9Z"/>
      </g>
    </g>
  </g>
</svg>