<?xml version="1.0" encoding="UTF-8" standalone="no"?>
<!-- Generator: Adobe Illustrator 16.0.0, SVG Export Plug-In . SVG Version: 6.00 Build 0)  -->

<svg
   version="1.1"
   id="Layer_1"
   x="0px"
   y="0px"
   width="740"
   height="450"
   viewBox="0 0 739.99999 449.99998"
   enable-background="new 0 0 841.89 595.28"
   xml:space="preserve"
   sodipodi:docname="iceni_master.svg"
   inkscape:version="1.3.2 (091e20e, 2023-11-25, custom)"
   xmlns:inkscape="http://www.inkscape.org/namespaces/inkscape"
   xmlns:sodipodi="http://sodipodi.sourceforge.net/DTD/sodipodi-0.dtd"
   xmlns="http://www.w3.org/2000/svg"
   xmlns:svg="http://www.w3.org/2000/svg"><defs
   id="defs6" /><sodipodi:namedview
   id="namedview6"
   pagecolor="#ffffff"
   bordercolor="#000000"
   borderopacity="0.25"
   inkscape:showpageshadow="2"
   inkscape:pageopacity="0.0"
   inkscape:pagecheckerboard="0"
   inkscape:deskcolor="#d1d1d1"
   showguides="true"
   inkscape:zoom="1.5681695"
   inkscape:cx="483.36611"
   inkscape:cy="382.93054"
   inkscape:window-width="3840"
   inkscape:window-height="2081"
   inkscape:window-x="1341"
   inkscape:window-y="-9"
   inkscape:window-maximized="1"
   inkscape:current-layer="g5" />
<g
   id="g6">
	<g
   id="g5">
		
			
		
		
		
		<g
   id="g8"
   transform="translate(0,-73.046839)"><path
     fill-rule="evenodd"
     clip-rule="evenodd"
     fill="#ffffff"
     stroke="#010101"
     stroke-width="0.0727"
     stroke-linecap="square"
     stroke-miterlimit="10"
     d="m 282.1465,196.413 h -198.11 c -13.963,0 -25.236,11.345 -25.236,25.236 v 0 252.508 c 0,13.892 11.273,25.236 25.236,25.236 v 0 h 571.927 c 13.964,0 25.236,-11.345 25.236,-25.236 v 0 -252.508 c 0,-13.891 -11.272,-25.236 -25.236,-25.236 v 0 h -205.381 l 4.509,-25.382 -30.836,-53.309 -57.892,-21.019 -57.891,21.019 -30.836,53.309 z"
     id="path1" /><path
     fill-rule="evenodd"
     clip-rule="evenodd"
     fill="#21285a"
     d="M 288.982,338.958 H 264.4 c -2.254,15.055 -12,22.618 -29.309,22.618 -23.346,0 -36.218,-13.673 -36.218,-38.473 0,-25.6 12.873,-39.709 36.364,-39.709 11.2,0 20.291,3.564 25.673,10.037 3.418,4.146 4.727,7.781 5.309,14.909 v 0 h 21.236 v -37.382 h -19.564 v 12.727 c -2.691,-3.782 -4.291,-5.455 -7.272,-7.491 -6.691,-4.655 -17.6,-7.273 -30.182,-7.273 -35.346,0 -56.8,19.927 -56.8,52.8 0,34.4 22.545,54.327 61.673,54.327 32.363,10e-4 52.436,-13.818 53.672,-37.09 z m 53.745,-24.363 v -29.528 h 50.4 v 17.381 H 412.69 V 271.031 H 303.309 v 14.036 h 15.272 v 74.836 h -15.272 v 14.109 H 412.69 v -32.945 h -19.563 v 18.836 h -50.4 v -31.127 h 21.746 v 12.291 h 16.437 v -38.619 h -16.437 v 12.146 h -21.746 z m 173.455,59.418 h 32.073 v -88.946 h 14.182 v -14.036 h -51.273 v 14.036 h 17.382 v 70.327 l -50.108,-84.363 h -50.037 v 14.036 h 15.2 v 74.836 h -15.2 v 14.109 h 52.146 v -14.109 h -17.6 v -73.309 z m 76.363,-14.11 h -15.927 v 14.109 h 57.309 v -14.109 h -17.236 v -74.836 h 17.236 v -14.036 h -57.309 v 14.036 h 15.927 z m -470.617,0 h -15.854 v 14.109 h 57.309 v -14.109 h -17.237 v -74.836 h 17.236 v -14.036 h -57.309 v 14.036 h 15.854 v 74.836 z"
     id="path2" /><path
     fill-rule="evenodd"
     clip-rule="evenodd"
     fill="#21285a"
     d="m 194.872,392.994 h 8.218 c 1.746,0 3.2,0.218 4.364,0.873 1.164,0.654 1.963,1.526 2.691,2.69 0.582,1.092 1.018,2.473 1.309,3.928 0.218,1.527 0.364,3.199 0.364,4.945 0,1.818 -0.146,3.49 -0.364,5.091 -0.291,1.601 -0.728,3.055 -1.309,4.364 -0.728,1.236 -1.527,2.182 -2.691,2.908 -1.091,0.728 -2.618,1.092 -4.364,1.092 v 0 h -8.218 z m 35.927,29.673 V 405.14 c 0.655,-0.291 1.455,-0.654 2.473,-1.091 0.946,-0.437 2.037,-0.8 3.2,-1.163 1.164,-0.364 2.254,-0.655 3.418,-0.873 v 0 -4.146 c -1.164,0.146 -2.327,0.509 -3.491,0.945 -1.164,0.436 -2.182,0.945 -3.127,1.382 -1.018,0.582 -1.818,1.018 -2.473,1.455 v 0 -3.201 h -4.291 v 24.219 z m 21.528,0 v -24.219 h -4.218 v 24.219 z m 0,-29.382 v -4.509 h -4.218 v 4.509 z m 24.072,29.382 6.982,-24.219 h -4.509 l -5.818,20.655 h -1.818 l -5.6,-20.655 h -4.654 l 6.909,24.219 z m 19.709,0 v -24.219 h -4.291 v 24.219 z m 0,-29.382 v -4.509 h -4.291 v 4.509 z m 15.201,29.382 v -19.346 c 0.509,-0.218 1.164,-0.509 1.891,-0.8 0.8,-0.218 1.6,-0.437 2.473,-0.654 0.873,-0.146 1.672,-0.218 2.473,-0.218 1.527,0 2.691,0.291 3.418,0.799 0.728,0.51 1.236,1.455 1.527,2.691 0.218,1.164 0.291,2.836 0.291,4.873 v 0 12.654 h 4.363 v -12.8 c 0,-2.183 -0.072,-4 -0.363,-5.527 -0.218,-1.527 -0.728,-2.69 -1.309,-3.71 -0.655,-0.872 -1.527,-1.6 -2.691,-2.035 -1.164,-0.438 -2.545,-0.654 -4.364,-0.654 -0.873,0 -1.746,0.072 -2.764,0.363 -0.945,0.218 -1.891,0.436 -2.691,0.8 -0.873,0.363 -1.673,0.654 -2.254,0.945 v 0 -1.601 h -4.218 v 24.219 h 4.218 z m 45.527,9.455 c 1.963,-1.164 2.981,-3.201 2.981,-5.965 0,-1.963 -0.291,-3.49 -0.945,-4.508 -0.654,-1.02 -1.673,-1.674 -3.127,-2.037 -1.454,-0.436 -3.418,-0.582 -5.818,-0.582 -1.455,0 -2.545,-0.072 -3.346,-0.145 -0.8,0 -1.455,-0.146 -1.818,-0.291 -0.437,-0.146 -0.728,-0.364 -0.8,-0.582 -0.146,-0.291 -0.218,-0.654 -0.218,-1.164 0,-0.146 0.146,-0.582 0.291,-1.164 0.218,-0.508 0.437,-0.945 0.582,-1.381 0.291,0 0.727,0 1.309,0.072 0.509,0.072 0.873,0.072 1.164,0.072 2.254,0 4.073,-0.218 5.6,-0.727 1.455,-0.437 2.545,-1.309 3.272,-2.473 0.8,-1.236 1.164,-2.909 1.164,-5.019 0,-1.163 -0.145,-2.108 -0.509,-2.837 -0.291,-0.727 -0.655,-1.309 -1.164,-1.744 v 0 l 4.727,0.072 v -3.346 l -7.709,0.146 c -0.582,-0.146 -1.382,-0.218 -2.4,-0.364 -1.018,-0.145 -1.964,-0.217 -2.909,-0.217 -1.891,0 -3.636,0.29 -5.091,0.799 -1.455,0.582 -2.618,1.455 -3.346,2.619 -0.8,1.236 -1.236,2.908 -1.236,4.872 0,1.527 0.218,2.69 0.582,3.71 0.364,0.945 0.873,1.744 1.455,2.254 0.582,0.582 1.236,1.018 1.963,1.382 -0.291,0.437 -0.509,0.872 -0.8,1.31 -0.291,0.508 -0.509,1.018 -0.728,1.454 -0.146,0.437 -0.291,0.8 -0.291,1.019 0,0.727 0.145,1.381 0.436,1.963 0.218,0.654 0.582,1.092 1.018,1.455 -0.873,0.582 -1.672,1.164 -2.182,1.745 -0.582,0.582 -1.018,1.163 -1.382,1.818 -0.291,0.654 -0.437,1.527 -0.437,2.399 0,1.891 0.437,3.346 1.164,4.364 0.8,1.091 1.963,1.817 3.563,2.255 1.673,0.436 3.782,0.654 6.473,0.654 3.566,0.003 6.475,-0.652 8.512,-1.888 z m -12.8,-1.965 c -1.018,-0.29 -1.672,-0.727 -2.036,-1.381 -0.437,-0.582 -0.655,-1.383 -0.655,-2.4 0,-0.654 0.146,-1.091 0.291,-1.527 0.146,-0.436 0.364,-0.873 0.8,-1.236 0.436,-0.363 0.945,-0.8 1.6,-1.236 0.146,0 0.509,0 0.946,0 0.436,0.072 0.945,0.072 1.527,0.072 0.582,0.073 1.091,0.073 1.6,0.073 0.509,0 0.946,0 1.309,0 1.455,0 2.691,0.146 3.564,0.291 0.873,0.146 1.527,0.509 1.963,1.019 0.364,0.582 0.509,1.454 0.509,2.545 0,1.527 -0.509,2.545 -1.673,3.2 -1.236,0.654 -2.982,1.019 -5.455,1.019 -1.818,-10e-4 -3.272,-0.148 -4.29,-0.439 z m -0.946,-20.072 c -0.873,-0.727 -1.236,-2.036 -1.236,-3.854 0,-1.817 0.364,-3.127 1.236,-3.854 0.8,-0.8 2.182,-1.164 4.073,-1.164 2.036,0 3.491,0.364 4.364,1.164 0.873,0.728 1.236,2.037 1.236,3.854 0,1.818 -0.364,3.128 -1.236,3.854 -0.873,0.728 -2.328,1.164 -4.364,1.164 -1.891,0 -3.273,-0.436 -4.073,-1.164 z m 64.073,11.928 c 1.746,-0.654 3.055,-1.818 4,-3.273 0.946,-1.527 1.382,-3.563 1.382,-6.036 0,-1.454 -0.218,-2.618 -0.581,-3.636 -0.364,-1.019 -1.019,-1.891 -1.892,-2.546 -0.872,-0.654 -1.891,-1.236 -3.199,-1.673 -1.236,-0.436 -2.837,-0.873 -4.655,-1.309 -1.963,-0.437 -3.563,-0.801 -4.727,-1.236 -1.236,-0.363 -2.109,-0.945 -2.691,-1.674 -0.509,-0.727 -0.8,-1.744 -0.8,-3.127 0,-1.163 0.291,-2.109 0.873,-2.908 0.581,-0.728 1.382,-1.31 2.473,-1.674 1.018,-0.363 2.327,-0.508 3.927,-0.508 0.8,0 1.746,0 2.982,0.145 1.163,0.072 2.399,0.146 3.709,0.219 1.236,0.218 2.473,0.291 3.49,0.436 v 0 l 0.291,-3.563 c -0.945,-0.146 -2.036,-0.291 -3.345,-0.438 -1.237,-0.145 -2.619,-0.291 -3.928,-0.436 -1.31,-0.073 -2.473,-0.146 -3.491,-0.146 -2.327,0 -4.363,0.291 -6.036,0.946 -1.745,0.654 -3.055,1.601 -4.072,2.909 -0.946,1.309 -1.382,3.127 -1.382,5.382 0,1.6 0.146,2.909 0.654,3.927 0.437,1.092 1.091,1.964 2.036,2.691 0.873,0.727 2.109,1.309 3.418,1.745 1.382,0.437 2.982,0.873 4.873,1.236 1.891,0.291 3.346,0.728 4.509,1.091 1.019,0.437 1.892,0.945 2.327,1.673 0.437,0.728 0.728,1.673 0.728,2.837 0,1.454 -0.291,2.617 -0.8,3.49 -0.582,0.945 -1.31,1.673 -2.4,2.109 -1.09,0.436 -2.399,0.654 -3.927,0.654 -0.945,0 -2.036,0 -3.346,-0.145 -1.236,-0.073 -2.618,-0.146 -3.854,-0.291 -1.309,-0.146 -2.546,-0.291 -3.563,-0.364 v 0 l -0.364,3.491 c 1.019,0.145 2.183,0.291 3.564,0.436 1.382,0.219 2.764,0.364 4.146,0.438 1.382,0.145 2.545,0.218 3.636,0.218 2.326,10e-4 4.363,-0.364 6.035,-1.09 z m 30.328,0.945 c 0.872,0 1.745,-0.146 2.69,-0.219 0.873,-0.072 1.673,-0.218 2.327,-0.363 v 0 l -0.072,-3.346 c -0.655,0.073 -1.31,0.146 -2.036,0.146 -0.801,0.072 -1.527,0.145 -2.328,0.145 -0.727,0.072 -1.382,0.146 -1.817,0.146 -1.964,0 -3.491,-0.29 -4.51,-0.945 -1.018,-0.581 -1.745,-1.527 -2.036,-2.909 -0.363,-1.309 -0.582,-3.199 -0.582,-5.455 0,-2.108 0.219,-3.781 0.582,-5.018 0.437,-1.164 1.164,-2.109 2.182,-2.691 1.019,-0.508 2.473,-0.799 4.364,-0.799 0.436,0 1.091,0 1.817,0 0.728,0.072 1.455,0.145 2.183,0.218 0.8,0.073 1.454,0.146 2.036,0.218 v 0 l 0.146,-3.418 c -0.655,-0.072 -1.382,-0.219 -2.255,-0.363 -0.945,-0.073 -1.818,-0.146 -2.69,-0.291 -0.801,0 -1.527,-0.072 -2.183,-0.072 -2.473,0 -4.509,0.363 -6.108,1.163 -1.527,0.8 -2.764,2.108 -3.419,3.927 -0.727,1.818 -1.091,4.146 -1.091,7.127 0,3.128 0.291,5.674 0.946,7.564 0.654,1.891 1.672,3.272 3.272,4.072 1.527,0.873 3.636,1.31 6.399,1.31 0.582,-0.001 1.382,-0.001 2.183,-0.147 z m 18.69,-0.291 v -19.709 c 0.509,-0.146 1.091,-0.363 1.818,-0.582 0.8,-0.219 1.6,-0.436 2.473,-0.582 0.873,-0.145 1.673,-0.145 2.473,-0.145 1.527,0 2.691,0.291 3.418,0.799 0.654,0.51 1.164,1.455 1.455,2.691 0.218,1.164 0.363,2.836 0.363,4.873 v 0 12.654 h 4.291 v -12.873 c 0,-2.109 -0.072,-3.927 -0.363,-5.454 -0.219,-1.527 -0.655,-2.69 -1.236,-3.71 -0.655,-0.872 -1.527,-1.6 -2.618,-2.035 -1.237,-0.438 -2.618,-0.654 -4.437,-0.654 -0.873,0 -1.746,0.072 -2.691,0.217 -0.945,0.219 -1.891,0.438 -2.764,0.729 -0.872,0.291 -1.6,0.581 -2.182,0.799 v 0 -11.709 h -4.291 v 34.691 z m 43.709,-0.945 c 1.601,-0.945 2.764,-2.4 3.418,-4.291 0.655,-1.891 1.019,-4.219 1.019,-7.2 0,-2.764 -0.363,-5.091 -1.091,-6.909 -0.728,-1.818 -1.891,-3.127 -3.491,-4.072 -1.673,-0.873 -3.854,-1.309 -6.545,-1.309 -2.691,0 -4.873,0.436 -6.473,1.309 -1.601,0.945 -2.764,2.254 -3.491,4.072 -0.727,1.818 -1.091,4.146 -1.091,6.909 0,2.981 0.291,5.31 0.945,7.2 0.654,1.89 1.818,3.346 3.418,4.291 1.601,0.945 3.854,1.382 6.691,1.382 2.91,0 5.164,-0.437 6.691,-1.382 z m -10.981,-3.127 c -0.945,-0.582 -1.601,-1.601 -1.892,-2.982 -0.29,-1.382 -0.436,-3.199 -0.436,-5.382 0,-2.182 0.218,-3.854 0.582,-5.163 0.363,-1.31 1.091,-2.255 2.036,-2.764 1.018,-0.51 2.327,-0.801 4,-0.801 1.745,0 3.055,0.291 4,0.801 1.018,0.509 1.673,1.454 2.036,2.764 0.363,1.309 0.582,2.981 0.582,5.163 0,2.183 -0.146,4 -0.437,5.382 -0.291,1.382 -0.945,2.4 -1.891,2.982 -0.946,0.654 -2.4,1.018 -4.291,1.018 -1.89,-10e-4 -3.344,-0.364 -4.289,-1.018 z m 41.818,3.127 c 1.6,-0.945 2.764,-2.4 3.418,-4.291 0.654,-1.891 0.945,-4.219 0.945,-7.2 0,-2.764 -0.363,-5.091 -1.019,-6.909 -0.727,-1.818 -1.891,-3.127 -3.563,-4.072 -1.6,-0.873 -3.781,-1.309 -6.473,-1.309 -2.69,0 -4.872,0.436 -6.473,1.309 -1.673,0.945 -2.836,2.254 -3.563,4.072 -0.654,1.818 -1.019,4.146 -1.019,6.909 0,2.981 0.291,5.31 0.945,7.2 0.655,1.891 1.746,3.346 3.419,4.291 1.6,0.945 3.781,1.382 6.69,1.382 2.909,0 5.093,-0.437 6.693,-1.382 z m -10.982,-3.127 c -1.018,-0.582 -1.6,-1.601 -1.891,-2.982 -0.291,-1.381 -0.437,-3.199 -0.437,-5.382 0,-2.182 0.146,-3.854 0.582,-5.163 0.363,-1.31 1.091,-2.255 2.036,-2.764 0.945,-0.51 2.327,-0.801 4,-0.801 1.673,0 3.055,0.291 4,0.801 0.945,0.509 1.601,1.454 2.036,2.764 0.364,1.309 0.582,2.981 0.582,5.163 0,2.183 -0.146,4 -0.509,5.382 -0.291,1.382 -0.873,2.4 -1.891,2.982 -0.946,0.654 -2.328,1.018 -4.219,1.018 -1.891,0 -3.344,-0.364 -4.289,-1.018 z m 29.891,4.072 v -34.691 h -4.364 v 34.691 z m -346.473,0 c 2.545,0 4.727,-0.437 6.473,-1.309 1.673,-0.873 3.055,-2.109 4.073,-3.709 1.018,-1.527 1.673,-3.346 2.109,-5.455 0.436,-2.109 0.582,-4.291 0.582,-6.764 0,-2.4 -0.146,-4.654 -0.582,-6.618 -0.437,-1.964 -1.164,-3.709 -2.109,-5.091 -1.018,-1.382 -2.4,-2.473 -4.073,-3.346 -1.746,-0.727 -3.927,-1.164 -6.545,-1.164 v 0 h -12.727 v 33.455 h 12.799 z"
     id="path3" /><path
     fill-rule="evenodd"
     clip-rule="evenodd"
     fill="#21285a"
     d="m 360.9455,202.958 c 1.018,1.745 1.964,3.345 2.836,4.873 5.527,-5.527 11.127,-11.055 16.509,-16.437 -1.163,-1.309 -2.473,-2.691 -3.781,-4 -5.164,5.164 -10.328,10.328 -15.564,15.564 z m 30.545,-10.473 c -5.527,-5.527 -11.055,-11.127 -16.582,-16.582 -1.236,1.236 -2.545,2.545 -3.781,3.782 5.163,5.164 10.399,10.4 15.563,15.636 1.673,-0.945 3.346,-1.963 4.8,-2.836 z m -26.691,-18.691 c 1.455,-1.527 2.764,-2.836 4.218,-4.218 -1.236,-1.236 -2.545,-2.4 -3.782,-3.709 -4.582,-4.946 -9.963,-8.728 -16.582,-10.328 -1.091,-0.218 -2.109,-0.436 -3.2,-0.654 0,2.109 0,4 0,5.891 5.455,1.019 9.963,3.418 13.746,7.2 1.818,1.891 3.709,3.855 5.6,5.818 z m -11.563,13.673 c -7.127,6.328 -13.527,13.164 -14.618,23.491 1.309,0 2.545,0 3.854,0 1.746,-0.073 1.746,-0.146 2.182,-1.891 0.072,0 0.072,-0.073 0.072,-0.146 1.455,-5.164 4.218,-9.527 8.218,-13.091 1.527,-1.455 2.982,-2.836 4.437,-4.218 -1.527,-1.527 -2.836,-2.836 -4.145,-4.145 z m 33.527,-2.182 c 1.455,-1.455 2.909,-2.909 4.437,-4.364 2.327,-2.327 4.51,-4.8 6.182,-7.636 2.109,-3.563 3.419,-7.345 4,-11.563 -1.309,0 -2.618,-0.073 -3.927,0 -1.745,0.146 -1.745,0.218 -2.255,1.963 0,0.073 0,0.218 -0.072,0.291 -1.455,5.018 -4.146,9.236 -8,12.8 -1.527,1.382 -3.055,2.909 -4.582,4.364 1.453,1.454 2.762,2.763 4.217,4.145 z m -15.709,17.673 c 6.4,7.2 13.236,13.6 23.418,14.691 0,-1.673 0,-3.346 0,-4.946 0,-0.654 -0.219,-0.873 -0.873,-1.018 -4,-0.873 -7.637,-2.473 -10.691,-5.164 -1.745,-1.527 -3.418,-3.2 -5.091,-4.8 -0.945,-0.873 -1.818,-1.818 -2.69,-2.691 -1.455,1.383 -2.764,2.692 -4.073,3.928 z m 30.4,-49.673 c -0.873,-10.254 -8.291,-20.509 -17.236,-24.8 -14.982,14.254 -11.782,36.509 2.473,46.981 1.164,-1.382 2.4,-2.836 3.709,-4.291 -5.6,-4.364 -9.019,-9.818 -9.964,-16.582 -1.018,-6.836 0.728,-13.091 4.873,-18.691 5.745,4.509 9.164,10.254 10.4,17.382 1.89,0.001 3.781,0.001 5.745,0.001 z m -16.291,53.455 c 4.363,-5.527 9.818,-8.945 16.582,-9.964 6.836,-1.018 13.091,0.728 18.69,4.873 -4.509,5.745 -10.254,9.164 -17.382,10.4 0,1.963 0,3.782 0,5.673 8.582,-0.509 19.637,-6.764 24.801,-17.091 -12.873,-14.036 -35.346,-13.018 -47.055,2.328 1.455,1.235 2.837,2.472 4.364,3.781 z m -46.618,12.581 c 0,0.437 -0.073,0.728 0,1.019 0.945,5.818 3.2,10.981 6.909,15.491 2.691,3.346 5.891,5.964 9.6,8.073 0.509,0.291 0.727,0.218 1.164,-0.146 2.618,-2.764 4.873,-5.746 6.473,-9.164 2.545,-5.673 3.491,-11.563 2.473,-17.746 -0.873,-5.6 -3.127,-10.618 -6.836,-14.909 -1.455,-1.746 -3.2,-3.2 -4.873,-4.946 -1.382,1.6 -2.618,3.055 -3.854,4.437 13.745,10.836 11.563,27.491 4.945,35.272 -5.673,-4.509 -9.164,-10.254 -10.327,-17.382 -1.965,0.001 -3.783,0.001 -5.674,0.001 z m -26.546,-47.345 c 14.473,15.418 37.309,11.563 47.055,-2.4 -1.382,-1.164 -2.764,-2.4 -4.218,-3.636 -10.691,13.963 -27.854,11.345 -35.273,5.018 4.437,-5.673 10.255,-9.164 17.309,-10.328 0,-1.963 0,-3.782 0,-5.818 -11.127,1.673 -19.345,7.418 -24.873,17.164 z m 42.546,36.509 c -14.545,8.509 -29.527,1.309 -34.909,-6.909 2.982,-2.473 8,-4.509 11.854,-4.873 3.273,-0.363 6.545,-0.218 9.818,0.728 0.291,0.073 0.8,0.073 0.945,-0.146 1.164,-1.455 2.328,-2.982 3.418,-4.437 -12.437,-5.018 -26.109,-0.654 -33.6,7.854 2.545,4.8 6.109,8.8 10.618,11.782 6.327,4.218 13.164,6.109 20.727,5.455 4.582,-0.364 8.873,-1.673 12.873,-3.855 0.654,-0.291 0.727,-0.727 0.436,-1.309 -0.726,-1.381 -1.453,-2.835 -2.18,-4.29 z m 8.945,-46.4 c 4.873,-12.509 0.728,-25.818 -7.927,-33.672 -0.509,0.363 -1.018,0.654 -1.6,1.018 -6.618,4 -11.2,9.673 -13.891,16.945 -1.891,5.164 -2.4,10.473 -1.527,15.927 0.655,3.637 1.818,7.127 3.709,10.4 0.146,0.218 0.655,0.582 0.8,0.509 1.6,-0.727 3.2,-1.527 4.727,-2.254 -8.073,-13.818 -2.254,-28.509 6.836,-34.982 2.182,2.327 4.509,7.782 4.945,11.636 0.364,3.346 0.218,6.691 -0.654,9.964 -0.146,0.364 -0.146,0.945 0.073,1.091 1.455,1.164 2.982,2.254 4.509,3.418 z m 20.8,82.109 c 0.073,0 0.073,0 0.146,-0.073 0.364,-0.146 0.655,-0.364 1.019,-0.582 6.618,-3.854 11.346,-9.382 14.182,-16.509 2.109,-5.455 2.691,-11.055 1.673,-16.8 -0.582,-3.563 -1.745,-7.054 -3.563,-10.254 -0.146,-0.291 -0.728,-0.582 -0.873,-0.509 -1.6,0.728 -3.2,1.455 -4.728,2.255 8.51,14.618 1.382,29.382 -7.054,34.981 -0.946,-1.6 -1.964,-3.272 -2.691,-4.945 -2.473,-5.382 -2.909,-10.982 -1.382,-16.654 0.146,-0.364 0.146,-0.946 -0.072,-1.091 -1.455,-1.164 -2.982,-2.327 -4.437,-3.418 -4.729,10.908 -1.383,25.454 7.78,33.599 z m 9.964,-64.436 c 11.418,4.873 25.745,1.309 33.673,-7.854 -0.218,-0.291 -0.437,-0.654 -0.654,-1.018 -4.073,-6.982 -9.964,-11.782 -17.527,-14.545 -5.091,-1.818 -10.4,-2.255 -15.782,-1.382 -3.636,0.654 -7.055,1.818 -10.327,3.636 -0.437,0.218 -0.8,0.437 -0.509,1.018 0.8,1.527 1.527,3.055 2.254,4.582 14.691,-8.655 29.455,-1.164 34.982,6.836 -2.618,2.254 -7.637,4.363 -11.637,4.873 -3.346,0.437 -6.618,0.291 -9.891,-0.582 -0.363,-0.145 -1.019,-0.145 -1.164,0.073 -1.163,1.454 -2.254,2.908 -3.418,4.363 z m -29.309,17.091 c 1.309,-1.309 2.618,-2.618 3.854,-3.854 -5.164,-5.236 -10.4,-10.473 -15.563,-15.636 -1.673,0.945 -3.273,1.963 -4.873,2.909 5.527,5.526 11.054,11.053 16.582,16.581 z m 5.018,-87.346 49.601,18.036 26.399,45.673 -9.163,51.854 -40.437,33.891 h -52.8 l -40.363,-33.891 -9.164,-51.854 26.327,-45.673 z m 0,6.109 45.746,16.655 24.29,42.036 -8.436,47.854 -37.236,31.2 h -48.655 l -37.236,-31.2 -8.437,-47.854 24.291,-42.036 z m 6.181,49.164 c -5.6,5.6 -11.2,11.127 -16.582,16.509 1.236,1.309 2.545,2.618 3.782,3.927 5.237,-5.164 10.4,-10.4 15.637,-15.563 -1.018,-1.673 -1.964,-3.273 -2.837,-4.873 z"
     id="path4" /><path
     fill-rule="evenodd"
     clip-rule="evenodd"
     fill="#c8202d"
     d="M 147.926,487.249 H 84.072 c -3.636,0 -6.691,-1.309 -9.236,-3.855 -2.618,-2.545 -3.854,-5.672 -3.854,-9.309 v 0 -252.436 c 0,-3.637 1.236,-6.691 3.854,-9.309 2.545,-2.545 5.6,-3.782 9.236,-3.782 v 0 h 206.255 l -1.019,-6.109 H 84.072 c -5.309,0 -9.818,1.891 -13.527,5.6 -3.782,3.782 -5.672,8.291 -5.672,13.6 v 0 252.436 c 0,5.309 1.891,9.818 5.672,13.6 3.709,3.709 8.218,5.601 13.527,5.601 v 0 h 63.854 z m 444.146,0 h 63.854 c 3.637,0 6.764,-1.309 9.31,-3.855 2.545,-2.545 3.854,-5.672 3.854,-9.309 v 0 -252.436 c 0,-3.637 -1.31,-6.691 -3.854,-9.309 -2.546,-2.545 -5.673,-3.782 -9.31,-3.782 v 0 H 442.253 l 1.091,-6.109 h 212.582 c 5.31,0 9.818,1.891 13.601,5.6 3.709,3.782 5.6,8.291 5.6,13.6 v 0 252.436 c 0,5.309 -1.891,9.818 -5.6,13.6 -3.782,3.709 -8.291,5.601 -13.601,5.601 v 0 h -63.854 z m -438.109,0 v -31.2 c 0,-6.69 5.382,-12.073 12.073,-12.073 v 0 h 407.782 c 6.69,0 12.145,5.383 12.145,12.073 v 0 31.2 6.036 h -432 z m 36.218,-23.2 c 0.146,-0.364 0.073,-0.655 -0.073,-0.8 -0.146,-0.146 -0.364,-0.291 -0.728,-0.291 v 0 h -1.745 l -7.782,18.764 h 3.273 l 2.4,-5.673 c 0.291,0.364 0.582,0.728 1.091,0.945 0.437,0.218 0.946,0.291 1.6,0.291 0.582,0 1.236,-0.073 1.891,-0.364 0.654,-0.218 1.309,-0.508 1.963,-0.945 0.655,-0.436 1.236,-0.945 1.818,-1.527 0.582,-0.581 1.164,-1.163 1.673,-1.891 0.509,-0.654 0.945,-1.454 1.309,-2.182 0.436,-0.8 0.727,-1.527 0.945,-2.327 0.291,-0.872 0.437,-1.673 0.437,-2.327 0,-0.654 -0.146,-1.236 -0.291,-1.673 -0.218,-0.437 -0.509,-0.728 -0.945,-0.945 -0.437,-0.218 -0.946,-0.291 -1.527,-0.291 -0.946,0 -1.964,0.291 -2.982,0.872 -1.018,0.582 -2.036,1.383 -2.982,2.4 v 0 z m -2.328,6.327 c 0.437,-0.654 0.946,-1.309 1.382,-1.963 0.509,-0.582 0.946,-1.092 1.455,-1.527 0.509,-0.438 1.019,-0.801 1.455,-1.092 0.437,-0.218 0.873,-0.363 1.236,-0.363 0.582,0 0.946,0.291 1.164,0.727 0.146,0.51 0.146,1.236 -0.145,2.183 -0.291,0.8 -0.582,1.527 -1.019,2.327 -0.363,0.727 -0.873,1.382 -1.382,2.036 -0.582,0.582 -1.164,1.091 -1.745,1.454 -0.582,0.364 -1.236,0.582 -1.818,0.582 -0.364,0 -0.727,-0.072 -1.091,-0.218 -0.437,-0.146 -0.655,-0.364 -0.873,-0.728 v 0 z m 25.092,-7.346 h 3.418 l -5.891,14.037 h -1.746 v 0 c -0.728,0 -1.091,-0.364 -0.8,-1.164 l 0.509,-1.6 v 0 c -1.018,1.018 -1.963,1.745 -2.982,2.254 -1.018,0.51 -1.963,0.728 -2.836,0.728 -0.582,0 -1.091,-0.073 -1.455,-0.364 -0.436,-0.218 -0.727,-0.581 -0.873,-1.018 -0.146,-0.437 -0.218,-1.018 -0.146,-1.673 0.073,-0.654 0.291,-1.454 0.655,-2.327 l 3.709,-8.873 h 3.418 l -3.709,8.873 v 0 c -0.437,0.945 -0.582,1.6 -0.509,2.037 0.145,0.363 0.436,0.581 1.018,0.581 0.364,0 0.727,-0.073 1.236,-0.291 0.436,-0.218 0.873,-0.509 1.309,-0.872 0.509,-0.364 0.945,-0.801 1.382,-1.383 0.509,-0.509 0.873,-1.09 1.309,-1.745 z m 4.945,13.455 c -0.437,-0.51 -0.509,-1.309 -0.218,-2.255 0,-0.073 0,-0.146 0,-0.218 0.073,-0.072 0.073,-0.219 0.146,-0.437 0.073,-0.146 0.146,-0.364 0.291,-0.655 0.073,-0.218 0.291,-0.654 0.436,-1.09 l 2.618,-6.328 h -1.309 v 0 c -0.146,0 -0.291,0 -0.364,-0.145 -0.073,-0.073 0,-0.291 0.073,-0.582 l 0.582,-1.31 2.254,-0.363 2.255,-3.854 v 0 c 0.073,-0.146 0.218,-0.291 0.364,-0.437 0.218,-0.073 0.363,-0.146 0.582,-0.146 h 1.818 l -1.891,4.437 h 3.418 l -1.019,2.399 h -3.418 l -2.545,6.182 v 0 c -0.218,0.364 -0.291,0.655 -0.364,0.873 -0.146,0.219 -0.218,0.437 -0.218,0.51 -0.073,0.145 -0.146,0.218 -0.146,0.291 0,0.072 0,0.072 0,0.072 -0.145,0.363 -0.145,0.654 0,0.873 0.073,0.218 0.291,0.291 0.655,0.291 0.146,0 0.364,0 0.509,-0.073 0.146,-0.073 0.291,-0.146 0.364,-0.146 0.146,-0.072 0.291,-0.146 0.364,-0.219 0.073,0 0.146,-0.072 0.218,-0.072 0.146,0 0.218,0.072 0.218,0.072 0.073,0.073 0.073,0.146 0.073,0.219 l 0.291,1.673 v 0 c -0.654,0.437 -1.309,0.728 -1.963,0.945 -0.655,0.218 -1.309,0.291 -1.964,0.291 -1.019,0.002 -1.746,-0.216 -2.11,-0.798 z m 11.491,0 c -0.436,-0.51 -0.509,-1.309 -0.291,-2.255 0.072,-0.073 0.072,-0.146 0.072,-0.218 0.073,-0.072 0.073,-0.219 0.146,-0.437 0.073,-0.146 0.146,-0.364 0.291,-0.655 0.073,-0.218 0.218,-0.654 0.437,-1.09 l 2.618,-6.328 h -1.309 v 0 c -0.146,0 -0.291,0 -0.364,-0.145 -0.073,-0.073 -0.073,-0.291 0.073,-0.582 l 0.582,-1.31 2.254,-0.363 2.254,-3.854 v 0 c 0.073,-0.146 0.218,-0.291 0.364,-0.437 0.218,-0.073 0.364,-0.146 0.582,-0.146 h 1.818 l -1.891,4.437 h 3.418 l -1.018,2.399 h -3.418 l -2.618,6.182 v 0 c -0.146,0.364 -0.218,0.655 -0.363,0.873 -0.073,0.219 -0.146,0.437 -0.146,0.51 -0.073,0.145 -0.146,0.218 -0.146,0.291 0,0.072 0,0.072 0,0.072 -0.146,0.363 -0.146,0.654 0,0.873 0.073,0.218 0.291,0.291 0.654,0.291 0.146,0 0.364,0 0.509,-0.073 0.145,-0.073 0.291,-0.146 0.364,-0.146 0.145,-0.072 0.218,-0.146 0.363,-0.219 0.073,0 0.146,-0.072 0.218,-0.072 0.146,0 0.218,0.072 0.218,0.072 0.073,0.073 0.073,0.146 0.073,0.219 l 0.291,1.673 v 0 c -0.655,0.437 -1.309,0.728 -1.964,0.945 -0.654,0.218 -1.382,0.291 -1.963,0.291 -1.017,0.002 -1.745,-0.216 -2.108,-0.798 z m 20.8,-18.472 c 0,-0.291 -0.146,-0.51 -0.218,-0.728 -0.146,-0.146 -0.364,-0.291 -0.582,-0.437 -0.218,-0.072 -0.436,-0.146 -0.727,-0.146 -0.291,0 -0.582,0.073 -0.873,0.146 -0.218,0.146 -0.509,0.291 -0.8,0.51 -0.218,0.145 -0.437,0.363 -0.654,0.654 -0.218,0.291 -0.364,0.582 -0.437,0.8 -0.073,0.364 -0.073,0.581 -0.073,0.872 0,0.291 0.146,0.51 0.291,0.655 0.146,0.218 0.291,0.363 0.509,0.509 0.218,0.072 0.437,0.146 0.728,0.146 0.291,0 0.582,-0.073 0.8,-0.146 0.291,-0.146 0.582,-0.291 0.873,-0.509 0.218,-0.146 0.436,-0.364 0.654,-0.655 0.218,-0.291 0.364,-0.508 0.437,-0.872 0.145,-0.291 0.145,-0.508 0.072,-0.799 z m -5.455,4.945 -5.891,14.109 h 3.346 l 5.891,-14.109 z m 10.691,1.091 -0.582,1.892 v 0 c 1.018,-1.092 2.037,-1.892 3.055,-2.4 1.018,-0.51 1.963,-0.728 2.909,-0.728 0.582,0 1.091,0.073 1.527,0.291 0.363,0.29 0.654,0.581 0.8,1.091 0.218,0.436 0.218,1.018 0.146,1.673 -0.073,0.654 -0.291,1.382 -0.655,2.255 l -3.709,8.945 h -3.345 l 3.636,-8.945 v 0 c 0.437,-0.945 0.582,-1.601 0.437,-1.965 -0.073,-0.436 -0.364,-0.581 -0.946,-0.581 -0.363,0 -0.8,0.073 -1.236,0.291 -0.436,0.218 -0.945,0.509 -1.382,0.945 -0.509,0.364 -1.018,0.872 -1.455,1.382 -0.509,0.582 -0.945,1.236 -1.309,1.891 l -2.836,6.982 h -3.418 l 5.891,-14.109 h 1.672 v 0 c 0.364,0 0.655,0.146 0.8,0.291 0.146,0.144 0.146,0.435 0,0.799 z m 14.909,5.818 c -0.218,-0.364 -0.218,-0.873 0,-1.601 0.146,-0.436 0.291,-0.8 0.509,-1.236 0.218,-0.363 0.509,-0.654 0.8,-1.018 0.291,-0.291 0.654,-0.51 1.018,-0.654 0.364,-0.219 0.727,-0.291 1.164,-0.291 0.582,0 1.018,0.218 1.236,0.509 0.218,0.437 0.218,0.945 0,1.601 -0.146,0.436 -0.291,0.799 -0.509,1.236 -0.218,0.363 -0.509,0.727 -0.8,1.018 -0.291,0.363 -0.654,0.582 -1.018,0.8 -0.364,0.146 -0.728,0.218 -1.164,0.218 -0.581,-0.001 -1.018,-0.145 -1.236,-0.582 z m 7.127,-6.4 c -0.363,-0.218 -0.727,-0.363 -1.164,-0.509 -0.437,-0.146 -0.945,-0.146 -1.455,-0.146 -0.945,0 -1.891,0.146 -2.691,0.437 -0.873,0.291 -1.6,0.727 -2.254,1.236 -0.655,0.509 -1.236,1.091 -1.673,1.745 -0.437,0.655 -0.727,1.31 -0.945,2.036 -0.218,0.728 -0.291,1.31 -0.291,1.891 0.073,0.51 0.291,0.946 0.509,1.31 0.291,0.364 0.654,0.655 1.018,0.8 0.437,0.219 0.945,0.291 1.455,0.291 0.654,0 1.164,-0.072 1.673,-0.218 0.509,-0.146 0.945,-0.291 1.382,-0.582 -0.509,0.655 -0.873,1.236 -1.019,1.818 -0.073,0.291 -0.073,0.581 -0.073,0.872 -0.582,-0.072 -1.164,-0.145 -1.745,-0.145 -0.655,0 -1.309,0 -1.964,0.072 -0.727,0.072 -1.309,0.219 -2.036,0.437 -0.655,0.146 -1.236,0.437 -1.746,0.728 -0.582,0.363 -1.091,0.727 -1.455,1.236 -0.437,0.436 -0.727,1.018 -0.945,1.672 -0.146,0.51 -0.146,1.019 0,1.455 0.146,0.436 0.363,0.8 0.8,1.091 0.364,0.364 0.873,0.582 1.527,0.8 0.655,0.146 1.382,0.219 2.254,0.219 1.091,0 2.037,-0.146 2.982,-0.437 0.945,-0.218 1.746,-0.582 2.473,-1.091 0.728,-0.437 1.309,-1.019 1.818,-1.6 0.509,-0.655 0.873,-1.31 1.091,-2.037 0.146,-0.509 0.218,-0.873 0.146,-1.309 -0.073,-0.363 -0.146,-0.728 -0.218,-1.019 -0.073,-0.364 -0.146,-0.654 -0.218,-1.019 -0.073,-0.291 0,-0.654 0.073,-1.018 0.146,-0.363 0.218,-0.654 0.437,-0.945 0.146,-0.291 0.364,-0.582 0.582,-0.801 0.218,-0.291 0.437,-0.509 0.655,-0.799 0.218,-0.219 0.437,-0.51 0.655,-0.801 0.218,-0.291 0.436,-0.582 0.654,-0.945 0.146,-0.291 0.364,-0.654 0.437,-1.164 0.073,-0.218 0.146,-0.363 0.146,-0.582 0.072,-0.218 0.072,-0.436 0.072,-0.581 v 0 l 1.6,-0.364 c 0.437,-0.145 0.728,-0.436 0.946,-0.945 v 0 l 0.436,-1.091 h -3.929 z m -11.781,15.782 c -0.364,-0.291 -0.437,-0.728 -0.291,-1.236 0.073,-0.291 0.291,-0.582 0.582,-0.873 0.364,-0.291 0.727,-0.51 1.309,-0.654 0.509,-0.219 1.164,-0.291 1.963,-0.291 0.8,0 1.673,0.072 2.691,0.219 0,0.072 0,0.217 -0.073,0.363 0,0.145 0,0.218 -0.073,0.363 -0.072,0.363 -0.291,0.728 -0.509,1.018 -0.291,0.291 -0.582,0.582 -0.945,0.801 -0.364,0.219 -0.8,0.436 -1.236,0.509 -0.509,0.146 -0.946,0.218 -1.455,0.218 -0.945,-10e-4 -1.6,-0.146 -1.963,-0.437 z m 30.763,-2.619 c 1.018,-0.436 1.963,-1.018 2.909,-1.817 0.873,-0.8 1.673,-1.673 2.4,-2.764 0.654,-1.019 1.236,-2.182 1.6,-3.346 0.291,-0.945 0.364,-1.817 0.291,-2.546 0,-0.727 -0.218,-1.381 -0.582,-1.817 -0.291,-0.509 -0.8,-0.873 -1.382,-1.163 -0.582,-0.291 -1.236,-0.364 -2.036,-0.364 -1.019,0 -2.037,0.218 -3.055,0.654 -1.018,0.436 -2.037,1.019 -2.909,1.818 -0.945,0.728 -1.673,1.673 -2.4,2.69 -0.728,1.092 -1.236,2.182 -1.6,3.418 -0.291,0.946 -0.437,1.746 -0.364,2.547 0.073,0.727 0.291,1.309 0.655,1.817 0.291,0.509 0.727,0.872 1.309,1.163 0.582,0.291 1.309,0.364 2.109,0.364 1.019,0.001 1.964,-0.217 3.055,-0.654 z m -3.49,-2.763 c -0.291,-0.509 -0.218,-1.382 0.146,-2.546 0.218,-0.8 0.509,-1.527 0.945,-2.254 0.363,-0.728 0.8,-1.31 1.236,-1.891 0.509,-0.582 1.018,-1.02 1.6,-1.31 0.582,-0.291 1.091,-0.509 1.672,-0.509 0.8,0 1.309,0.291 1.527,0.799 0.218,0.582 0.218,1.383 -0.146,2.546 -0.218,0.8 -0.582,1.601 -0.945,2.327 -0.364,0.654 -0.8,1.31 -1.309,1.891 -0.509,0.51 -1.018,0.946 -1.527,1.31 -0.582,0.291 -1.164,0.437 -1.746,0.437 -0.726,0 -1.236,-0.219 -1.453,-0.8 z m 25.672,-10.837 h 3.418 l -5.891,14.037 h -1.672 v 0 c -0.8,0 -1.091,-0.364 -0.873,-1.164 l 0.509,-1.6 v 0 c -0.946,1.018 -1.964,1.745 -2.982,2.254 -1.018,0.51 -1.964,0.728 -2.836,0.728 -0.582,0 -1.091,-0.073 -1.455,-0.364 -0.437,-0.218 -0.727,-0.581 -0.873,-1.018 -0.146,-0.437 -0.218,-1.018 -0.146,-1.673 0.073,-0.654 0.291,-1.454 0.655,-2.327 l 3.709,-8.873 h 3.418 l -3.709,8.873 v 0 c -0.437,0.945 -0.582,1.6 -0.509,2.037 0.146,0.363 0.437,0.581 1.018,0.581 0.364,0 0.728,-0.073 1.237,-0.291 0.436,-0.218 0.873,-0.509 1.309,-0.872 0.509,-0.364 0.945,-0.801 1.382,-1.383 0.509,-0.509 0.873,-1.09 1.309,-1.745 z m 11.055,1.019 -0.727,2.327 v 0 c 0.509,-0.727 1.091,-1.309 1.6,-1.818 0.582,-0.509 1.164,-0.873 1.673,-1.164 0.509,-0.29 1.018,-0.436 1.527,-0.508 0.437,-0.073 0.873,0 1.309,0.218 l -1.6,3.272 v 0 c -0.945,-0.509 -1.963,-0.363 -3.055,0.363 -1.018,0.654 -2.109,2.037 -3.2,4.073 l -2.618,6.255 h -3.346 l 5.891,-14.109 h 1.746 v 0 c 0.363,0 0.582,0.072 0.727,0.291 0.145,0.145 0.218,0.436 0.073,0.8 z m 19.49,0 c 0.146,-0.364 0.073,-0.655 -0.072,-0.8 -0.146,-0.146 -0.364,-0.291 -0.728,-0.291 v 0 h -1.673 l -7.854,18.764 h 3.346 l 2.327,-5.673 c 0.291,0.364 0.582,0.728 1.091,0.945 0.437,0.218 0.945,0.291 1.6,0.291 0.654,0 1.236,-0.073 1.891,-0.364 0.654,-0.218 1.309,-0.508 1.963,-0.945 0.655,-0.436 1.236,-0.945 1.818,-1.527 0.582,-0.581 1.164,-1.163 1.672,-1.891 0.509,-0.654 0.946,-1.454 1.382,-2.182 0.364,-0.8 0.655,-1.527 0.946,-2.327 0.218,-0.872 0.363,-1.673 0.363,-2.327 0,-0.654 -0.073,-1.236 -0.291,-1.673 -0.218,-0.437 -0.509,-0.728 -0.946,-0.945 -0.436,-0.218 -0.945,-0.291 -1.455,-0.291 -1.018,0 -2.036,0.291 -3.054,0.872 -1.019,0.582 -2.037,1.383 -2.982,2.4 v 0 z m -2.327,6.327 c 0.437,-0.654 0.945,-1.309 1.382,-1.963 0.509,-0.582 1.018,-1.092 1.455,-1.527 0.509,-0.438 1.018,-0.801 1.455,-1.092 0.437,-0.218 0.873,-0.363 1.236,-0.363 0.582,0 0.945,0.291 1.164,0.727 0.146,0.51 0.146,1.236 -0.146,2.183 -0.218,0.8 -0.582,1.527 -0.945,2.327 -0.437,0.727 -0.945,1.382 -1.455,2.036 -0.509,0.582 -1.091,1.091 -1.746,1.454 -0.582,0.364 -1.164,0.582 -1.818,0.582 -0.364,0 -0.728,-0.072 -1.091,-0.218 -0.364,-0.146 -0.655,-0.364 -0.873,-0.728 v 0 z m 24.946,-7.346 h 3.418 l -5.891,14.037 h -1.745 v 0 c -0.8,0 -1.091,-0.364 -0.8,-1.164 l 0.509,-1.6 v 0 c -1.018,1.018 -1.964,1.745 -2.982,2.254 -1.018,0.51 -1.963,0.728 -2.836,0.728 -0.582,0 -1.091,-0.073 -1.455,-0.364 -0.436,-0.218 -0.727,-0.581 -0.873,-1.018 -0.146,-0.437 -0.218,-1.018 -0.146,-1.673 0.073,-0.654 0.291,-1.454 0.655,-2.327 l 3.709,-8.873 h 3.418 l -3.782,8.873 v 0 c -0.364,0.945 -0.509,1.6 -0.437,2.037 0.146,0.363 0.437,0.581 1.019,0.581 0.363,0 0.727,-0.073 1.164,-0.291 0.509,-0.218 0.945,-0.509 1.382,-0.872 0.509,-0.364 0.945,-0.801 1.382,-1.383 0.436,-0.509 0.873,-1.09 1.309,-1.745 z m 11.2,1.019 c 0.146,-0.364 0.073,-0.655 -0.072,-0.8 -0.146,-0.146 -0.364,-0.291 -0.728,-0.291 v 0 h -1.673 l -7.854,18.764 h 3.272 l 2.4,-5.673 c 0.291,0.364 0.582,0.728 1.091,0.945 0.437,0.218 0.945,0.291 1.6,0.291 0.582,0 1.236,-0.073 1.892,-0.364 0.654,-0.218 1.309,-0.508 1.963,-0.945 0.655,-0.436 1.236,-0.945 1.818,-1.527 0.582,-0.581 1.164,-1.163 1.673,-1.891 0.509,-0.654 0.945,-1.454 1.382,-2.182 0.363,-0.8 0.654,-1.527 0.873,-2.327 0.291,-0.872 0.437,-1.673 0.437,-2.327 0,-0.654 -0.073,-1.236 -0.291,-1.673 -0.219,-0.437 -0.51,-0.728 -0.946,-0.945 -0.436,-0.218 -0.945,-0.291 -1.526,-0.291 -0.946,0 -1.964,0.291 -2.982,0.872 -1.018,0.582 -2.036,1.383 -2.981,2.4 v 0 z m -2.327,6.327 c 0.437,-0.654 0.945,-1.309 1.382,-1.963 0.509,-0.582 0.945,-1.092 1.454,-1.527 0.51,-0.438 1.019,-0.801 1.455,-1.092 0.437,-0.218 0.872,-0.363 1.236,-0.363 0.582,0 0.945,0.291 1.163,0.727 0.146,0.51 0.146,1.236 -0.146,2.183 -0.29,0.8 -0.581,1.527 -1.018,2.327 -0.364,0.727 -0.873,1.382 -1.382,2.036 -0.582,0.582 -1.164,1.091 -1.745,1.454 -0.582,0.364 -1.237,0.582 -1.818,0.582 -0.364,0 -0.728,-0.072 -1.091,-0.218 -0.437,-0.146 -0.655,-0.364 -0.873,-0.728 v 0 z m 22.254,-12.363 c -0.073,-0.291 -0.146,-0.51 -0.291,-0.728 -0.146,-0.146 -0.291,-0.291 -0.51,-0.437 -0.218,-0.072 -0.509,-0.146 -0.8,-0.146 -0.218,0 -0.509,0.073 -0.8,0.146 -0.291,0.146 -0.582,0.291 -0.8,0.51 -0.219,0.145 -0.51,0.363 -0.654,0.654 -0.219,0.291 -0.364,0.582 -0.437,0.8 -0.073,0.364 -0.146,0.581 -0.073,0.872 0,0.291 0.146,0.51 0.219,0.655 0.146,0.218 0.363,0.363 0.581,0.509 0.219,0.072 0.437,0.146 0.655,0.146 0.291,0 0.581,-0.073 0.872,-0.146 0.291,-0.146 0.582,-0.291 0.801,-0.509 0.29,-0.146 0.509,-0.364 0.727,-0.655 0.219,-0.291 0.364,-0.508 0.437,-0.872 0.073,-0.291 0.073,-0.508 0.073,-0.799 z m -5.527,4.945 -5.818,14.109 h 3.346 l 5.817,-14.109 z m 6.182,14.109 h -3.346 l 8.582,-20.364 h 3.346 z m 19.345,-12.654 -1.236,1.236 v 0 c -0.219,0.145 -0.291,0.291 -0.364,0.291 -0.146,0.072 -0.291,0.072 -0.437,0.072 -0.146,0 -0.291,0 -0.437,-0.072 -0.145,-0.146 -0.29,-0.219 -0.509,-0.364 -0.146,-0.073 -0.363,-0.218 -0.654,-0.291 -0.218,-0.073 -0.509,-0.146 -0.945,-0.146 -0.728,0 -1.31,0.146 -1.818,0.51 -0.437,0.291 -0.8,0.727 -0.945,1.163 -0.073,0.437 0,0.728 0.146,0.945 0.218,0.218 0.509,0.437 0.872,0.582 0.364,0.218 0.728,0.363 1.164,0.581 0.437,0.146 0.8,0.364 1.164,0.655 0.29,0.291 0.509,0.654 0.727,1.019 0.073,0.436 0.073,1.018 -0.146,1.672 -0.146,0.654 -0.509,1.31 -0.945,1.891 -0.437,0.655 -1.018,1.164 -1.673,1.674 -0.654,0.436 -1.309,0.799 -2.108,1.09 -0.801,0.291 -1.673,0.364 -2.546,0.364 -0.437,0 -0.873,0 -1.236,-0.073 -0.437,-0.145 -0.8,-0.218 -1.091,-0.363 -0.291,-0.219 -0.582,-0.363 -0.8,-0.582 -0.291,-0.218 -0.437,-0.436 -0.582,-0.654 l 1.236,-1.309 v 0 c 0.146,-0.146 0.291,-0.291 0.437,-0.363 0.146,-0.073 0.363,-0.146 0.582,-0.146 0.146,0 0.291,0.073 0.436,0.219 0.146,0.072 0.219,0.218 0.437,0.363 0.146,0.146 0.364,0.291 0.655,0.363 0.218,0.146 0.581,0.219 1.091,0.219 0.363,0 0.727,-0.072 1.018,-0.146 0.364,-0.073 0.582,-0.218 0.873,-0.437 0.218,-0.146 0.437,-0.363 0.654,-0.582 0.146,-0.218 0.291,-0.509 0.364,-0.727 0.072,-0.291 0.072,-0.582 0,-0.801 -0.146,-0.218 -0.291,-0.363 -0.51,-0.509 -0.218,-0.146 -0.437,-0.291 -0.727,-0.437 -0.291,-0.072 -0.655,-0.218 -0.946,-0.363 -0.291,-0.072 -0.581,-0.291 -0.872,-0.437 -0.291,-0.146 -0.51,-0.364 -0.728,-0.581 -0.146,-0.291 -0.291,-0.582 -0.291,-0.946 -0.072,-0.364 0,-0.8 0.146,-1.31 0.146,-0.654 0.437,-1.236 0.873,-1.817 0.437,-0.582 0.945,-1.164 1.527,-1.601 0.581,-0.436 1.236,-0.8 2.036,-1.09 0.728,-0.291 1.527,-0.364 2.399,-0.364 0.946,0 1.673,0.146 2.255,0.437 0.654,0.292 1.09,0.655 1.454,1.165 z m 15.782,-0.364 -0.654,1.892 v 0 c 1.019,-1.092 2.036,-1.892 3.055,-2.4 1.018,-0.51 1.964,-0.728 2.909,-0.728 0.581,0 1.091,0.073 1.527,0.291 0.363,0.29 0.654,0.581 0.8,1.091 0.218,0.436 0.218,1.018 0.146,1.673 -0.073,0.654 -0.291,1.382 -0.582,2.255 l -3.782,8.945 h -3.345 l 3.709,-8.945 v 0 c 0.363,-0.945 0.509,-1.601 0.437,-1.965 -0.146,-0.436 -0.437,-0.581 -1.019,-0.581 -0.363,0 -0.8,0.073 -1.236,0.291 -0.436,0.218 -0.945,0.509 -1.382,0.945 -0.509,0.364 -1.019,0.872 -1.455,1.382 -0.436,0.582 -0.872,1.236 -1.309,1.891 l -2.836,6.982 h -3.419 l 5.892,-14.109 h 1.672 v 0 c 0.364,0 0.655,0.146 0.801,0.291 0.144,0.144 0.144,0.435 0.071,0.799 z m 13.455,7.128 c 1.817,-0.146 3.272,-0.438 4.509,-0.729 1.163,-0.291 2.182,-0.654 2.981,-1.018 0.728,-0.437 1.31,-0.873 1.746,-1.455 0.363,-0.509 0.727,-1.09 0.872,-1.672 0.146,-0.437 0.146,-0.801 0.073,-1.236 -0.073,-0.438 -0.219,-0.801 -0.509,-1.164 -0.219,-0.291 -0.655,-0.582 -1.092,-0.8 -0.509,-0.218 -1.163,-0.291 -1.891,-0.291 -0.728,0 -1.527,0.073 -2.255,0.291 -0.727,0.218 -1.454,0.581 -2.108,0.945 -0.655,0.437 -1.31,0.872 -1.892,1.382 -0.581,0.582 -1.091,1.164 -1.6,1.818 -0.509,0.582 -0.945,1.309 -1.309,2.036 -0.364,0.728 -0.655,1.382 -0.873,2.182 -0.291,0.873 -0.437,1.673 -0.364,2.4 0.073,0.728 0.291,1.31 0.582,1.817 0.291,0.51 0.8,0.945 1.382,1.164 0.582,0.291 1.31,0.437 2.109,0.437 0.654,0 1.236,-0.073 1.818,-0.146 0.582,-0.146 1.091,-0.291 1.673,-0.51 0.581,-0.217 1.091,-0.508 1.673,-0.872 0.581,-0.364 1.163,-0.8 1.817,-1.236 v 0 l -0.509,-1.091 c -0.072,-0.072 -0.146,-0.146 -0.291,-0.219 -0.072,-0.072 -0.146,-0.072 -0.218,-0.072 -0.219,0 -0.364,0 -0.582,0.146 -0.218,0.073 -0.363,0.146 -0.582,0.218 -0.146,0.146 -0.363,0.291 -0.582,0.438 -0.291,0.072 -0.509,0.217 -0.8,0.363 -0.218,0.072 -0.582,0.218 -0.872,0.291 -0.364,0.072 -0.728,0.072 -1.092,0.072 -1.891,0 -2.473,-1.091 -1.817,-3.346 v 0 -0.143 z m 6.472,-5.892 c 0.146,0.073 0.291,0.218 0.437,0.291 0.072,0.146 0.145,0.218 0.145,0.364 0,0.145 0,0.29 -0.072,0.436 -0.072,0.291 -0.218,0.582 -0.437,0.801 -0.146,0.217 -0.509,0.508 -0.945,0.727 -0.436,0.219 -1.019,0.363 -1.745,0.582 -0.728,0.218 -1.746,0.363 -2.909,0.509 0.291,-0.581 0.654,-1.091 1.018,-1.527 0.364,-0.509 0.801,-0.872 1.164,-1.236 0.437,-0.29 0.873,-0.581 1.309,-0.8 0.437,-0.146 0.946,-0.291 1.382,-0.291 0.289,-0.001 0.508,0.071 0.653,0.144 z m 9.091,5.892 c 1.818,-0.146 3.272,-0.438 4.509,-0.729 1.164,-0.291 2.182,-0.654 2.981,-1.018 0.728,-0.437 1.31,-0.873 1.746,-1.455 0.363,-0.509 0.727,-1.09 0.873,-1.672 0.145,-0.437 0.145,-0.801 0.072,-1.236 -0.072,-0.438 -0.219,-0.801 -0.509,-1.164 -0.219,-0.291 -0.655,-0.582 -1.091,-0.8 -0.51,-0.218 -1.164,-0.291 -1.892,-0.291 -0.728,0 -1.527,0.073 -2.182,0.291 -0.8,0.218 -1.454,0.581 -2.182,0.945 -0.654,0.437 -1.31,0.872 -1.891,1.382 -0.582,0.582 -1.091,1.164 -1.601,1.818 -0.509,0.582 -0.945,1.309 -1.309,2.036 -0.364,0.728 -0.655,1.382 -0.873,2.182 -0.291,0.873 -0.363,1.673 -0.363,2.4 0.072,0.728 0.291,1.31 0.581,1.817 0.291,0.51 0.801,0.945 1.382,1.164 0.582,0.291 1.31,0.437 2.109,0.437 0.654,0 1.236,-0.073 1.818,-0.146 0.582,-0.146 1.091,-0.291 1.673,-0.51 0.582,-0.217 1.163,-0.508 1.673,-0.872 0.582,-0.364 1.163,-0.8 1.818,-1.236 v 0 l -0.51,-1.091 c -0.072,-0.072 -0.146,-0.146 -0.291,-0.219 -0.072,-0.072 -0.146,-0.072 -0.218,-0.072 -0.218,0 -0.364,0 -0.582,0.146 -0.218,0.073 -0.363,0.146 -0.582,0.218 -0.146,0.146 -0.363,0.291 -0.581,0.438 -0.291,0.072 -0.51,0.217 -0.728,0.363 -0.291,0.072 -0.654,0.218 -0.945,0.291 -0.364,0.072 -0.728,0.072 -1.091,0.072 -1.892,0 -2.473,-1.091 -1.818,-3.346 v 0 -0.143 z m 6.473,-5.892 c 0.146,0.073 0.291,0.218 0.437,0.291 0.072,0.146 0.146,0.218 0.146,0.364 0,0.145 0,0.29 -0.073,0.436 -0.072,0.291 -0.218,0.582 -0.437,0.801 -0.146,0.217 -0.436,0.508 -0.945,0.727 -0.437,0.219 -1.018,0.363 -1.745,0.582 -0.728,0.218 -1.745,0.363 -2.909,0.509 0.291,-0.581 0.654,-1.091 1.018,-1.527 0.364,-0.509 0.801,-0.872 1.164,-1.236 0.437,-0.29 0.873,-0.581 1.31,-0.8 0.436,-0.146 0.945,-0.291 1.382,-0.291 0.289,-0.001 0.506,0.071 0.652,0.144 z m 20.8,-8.582 -3.127,7.346 c -0.291,-0.364 -0.582,-0.728 -1.091,-0.945 -0.437,-0.218 -0.945,-0.291 -1.601,-0.291 -0.582,0 -1.236,0.073 -1.891,0.291 -0.654,0.29 -1.31,0.581 -1.964,1.019 -0.654,0.436 -1.236,0.945 -1.818,1.454 -0.581,0.581 -1.163,1.236 -1.672,1.964 -0.51,0.654 -0.946,1.381 -1.31,2.182 -0.363,0.727 -0.728,1.527 -0.945,2.327 -0.291,0.872 -0.437,1.673 -0.437,2.327 0,0.654 0.072,1.236 0.291,1.6 0.218,0.438 0.509,0.801 0.945,1.019 0.436,0.218 0.945,0.291 1.527,0.291 0.437,0 0.945,-0.073 1.454,-0.218 0.51,-0.146 1.019,-0.364 1.527,-0.654 0.437,-0.291 1.019,-0.655 1.527,-1.02 0.51,-0.436 0.945,-0.872 1.455,-1.381 v 0 l -0.728,1.963 c -0.072,0.291 -0.072,0.582 0,0.801 0.146,0.218 0.363,0.291 0.8,0.291 v 0 h 1.818 l 8.582,-20.364 h -3.342 z m -5.454,12.946 c -0.437,0.727 -0.946,1.381 -1.382,1.963 -0.51,0.654 -1.019,1.164 -1.455,1.6 -0.509,0.438 -1.019,0.801 -1.454,1.092 -0.437,0.218 -0.873,0.291 -1.236,0.291 -0.582,0 -0.945,-0.219 -1.164,-0.654 -0.146,-0.51 -0.146,-1.237 0.219,-2.256 0.218,-0.727 0.509,-1.454 0.945,-2.254 0.436,-0.728 0.872,-1.455 1.382,-2.037 0.581,-0.581 1.163,-1.09 1.745,-1.453 0.582,-0.364 1.236,-0.582 1.818,-0.582 0.363,0 0.727,0.072 1.091,0.218 0.437,0.146 0.654,0.364 0.873,0.728 v 0 z m 19.563,-5.236 -1.236,1.236 v 0 c -0.219,0.145 -0.291,0.291 -0.437,0.291 -0.073,0.072 -0.219,0.072 -0.363,0.072 -0.146,0 -0.291,0 -0.437,-0.072 -0.146,-0.146 -0.291,-0.219 -0.51,-0.364 -0.146,-0.073 -0.363,-0.218 -0.654,-0.291 -0.218,-0.073 -0.509,-0.146 -0.945,-0.146 -0.728,0 -1.31,0.146 -1.818,0.51 -0.437,0.291 -0.8,0.727 -0.945,1.163 -0.073,0.437 -0.073,0.728 0.146,0.945 0.218,0.218 0.509,0.437 0.873,0.582 0.363,0.218 0.727,0.363 1.163,0.581 0.437,0.146 0.8,0.364 1.164,0.655 0.291,0.291 0.509,0.654 0.654,1.019 0.146,0.436 0.146,1.018 -0.073,1.672 -0.145,0.654 -0.509,1.31 -0.945,1.891 -0.436,0.655 -1.018,1.164 -1.672,1.674 -0.655,0.436 -1.31,0.799 -2.109,1.09 -0.799,0.291 -1.673,0.364 -2.546,0.364 -0.437,0 -0.872,0 -1.236,-0.073 -0.437,-0.145 -0.8,-0.218 -1.091,-0.363 -0.291,-0.219 -0.582,-0.363 -0.8,-0.582 -0.291,-0.218 -0.437,-0.436 -0.582,-0.654 l 1.236,-1.309 v 0 c 0.146,-0.146 0.291,-0.291 0.437,-0.363 0.146,-0.073 0.363,-0.146 0.509,-0.146 0.219,0 0.364,0.073 0.51,0.219 0.146,0.072 0.218,0.218 0.437,0.363 0.145,0.146 0.363,0.291 0.654,0.363 0.218,0.146 0.582,0.219 1.091,0.219 0.363,0 0.728,-0.072 1.018,-0.146 0.291,-0.073 0.582,-0.218 0.873,-0.437 0.218,-0.146 0.437,-0.363 0.654,-0.582 0.146,-0.218 0.291,-0.509 0.364,-0.727 0.072,-0.291 0.072,-0.582 0,-0.801 -0.146,-0.218 -0.291,-0.363 -0.51,-0.509 -0.218,-0.146 -0.436,-0.291 -0.727,-0.437 -0.291,-0.072 -0.655,-0.218 -0.945,-0.363 -0.291,-0.072 -0.582,-0.291 -0.873,-0.437 -0.291,-0.146 -0.509,-0.364 -0.728,-0.581 -0.146,-0.291 -0.291,-0.582 -0.291,-0.946 -0.072,-0.364 0,-0.8 0.146,-1.31 0.146,-0.654 0.437,-1.236 0.873,-1.817 0.437,-0.582 0.945,-1.164 1.527,-1.601 0.582,-0.436 1.236,-0.8 2.036,-1.09 0.728,-0.291 1.527,-0.364 2.4,-0.364 0.945,0 1.673,0.146 2.254,0.437 0.581,0.292 1.09,0.655 1.454,1.165 z m 17.236,10.182 h 3.272 l -1.091,2.473 h -10.182 l 1.018,-2.473 h 3.637 l 5.019,-11.782 v 0 c 0.072,-0.218 0.146,-0.509 0.291,-0.728 0.072,-0.218 0.145,-0.436 0.29,-0.654 l -3.563,2.4 v 0 c -0.146,0.145 -0.363,0.218 -0.509,0.291 -0.218,0 -0.363,0 -0.509,0 -0.073,-0.073 -0.219,-0.073 -0.291,-0.146 -0.073,-0.072 -0.146,-0.145 -0.146,-0.218 l -0.437,-1.454 7.782,-5.164 h 2.69 z m 21.6,-10.182 -1.236,1.236 v 0 c -0.146,0.145 -0.291,0.291 -0.363,0.291 -0.146,0.072 -0.291,0.072 -0.437,0.072 -0.146,0 -0.291,0 -0.437,-0.072 -0.146,-0.146 -0.291,-0.219 -0.509,-0.364 -0.146,-0.073 -0.364,-0.218 -0.654,-0.291 -0.219,-0.073 -0.51,-0.146 -0.946,-0.146 -0.727,0 -1.309,0.146 -1.817,0.51 -0.437,0.291 -0.801,0.727 -0.946,1.163 -0.072,0.437 0,0.728 0.146,0.945 0.219,0.218 0.51,0.437 0.873,0.582 0.363,0.218 0.728,0.363 1.164,0.581 0.436,0.146 0.8,0.364 1.163,0.655 0.291,0.291 0.509,0.654 0.728,1.019 0.146,0.436 0.072,1.018 -0.073,1.672 -0.218,0.654 -0.581,1.31 -1.018,1.891 -0.437,0.655 -1.019,1.164 -1.601,1.674 -0.727,0.436 -1.382,0.799 -2.182,1.09 -0.8,0.291 -1.673,0.364 -2.545,0.364 -0.437,0 -0.873,0 -1.236,-0.073 -0.364,-0.145 -0.801,-0.218 -1.091,-0.363 -0.291,-0.219 -0.582,-0.363 -0.801,-0.582 -0.29,-0.218 -0.437,-0.436 -0.581,-0.654 l 1.236,-1.309 v 0 c 0.146,-0.146 0.291,-0.291 0.436,-0.363 0.146,-0.073 0.364,-0.146 0.582,-0.146 0.146,0 0.291,0.073 0.437,0.219 0.146,0.072 0.291,0.218 0.437,0.363 0.146,0.145 0.363,0.291 0.654,0.363 0.219,0.146 0.582,0.219 1.091,0.219 0.364,0 0.728,-0.072 1.019,-0.146 0.363,-0.073 0.654,-0.218 0.873,-0.437 0.218,-0.146 0.436,-0.363 0.654,-0.582 0.146,-0.218 0.291,-0.509 0.363,-0.727 0.073,-0.291 0.073,-0.582 0,-0.801 -0.146,-0.218 -0.291,-0.363 -0.509,-0.509 -0.219,-0.146 -0.437,-0.291 -0.728,-0.437 -0.291,-0.072 -0.654,-0.218 -0.945,-0.363 -0.291,-0.072 -0.582,-0.291 -0.873,-0.437 -0.291,-0.146 -0.509,-0.364 -0.727,-0.581 -0.146,-0.291 -0.291,-0.582 -0.291,-0.946 -0.073,-0.364 0,-0.8 0.146,-1.31 0.146,-0.654 0.437,-1.236 0.872,-1.817 0.437,-0.582 0.945,-1.164 1.527,-1.601 0.582,-0.436 1.236,-0.8 2.037,-1.09 0.727,-0.291 1.526,-0.364 2.399,-0.364 0.945,0 1.673,0.146 2.255,0.437 0.654,0.292 1.091,0.655 1.454,1.165 z m 1.164,12.072 c -0.437,-0.51 -0.51,-1.309 -0.291,-2.255 0.072,-0.073 0.072,-0.146 0.072,-0.218 0.073,-0.072 0.073,-0.219 0.146,-0.437 0.073,-0.146 0.146,-0.364 0.291,-0.655 0.073,-0.218 0.291,-0.654 0.437,-1.09 l 2.618,-6.328 h -1.309 v 0 c -0.146,0 -0.291,0 -0.364,-0.145 -0.072,-0.073 0,-0.291 0.073,-0.582 l 0.581,-1.31 2.255,-0.363 2.255,-3.854 v 0 c 0.072,-0.146 0.218,-0.291 0.363,-0.437 0.218,-0.073 0.363,-0.146 0.582,-0.146 h 1.818 l -1.892,4.437 h 3.419 l -1.019,2.399 h -3.418 l -2.618,6.182 v 0 c -0.146,0.364 -0.219,0.655 -0.364,0.873 -0.072,0.219 -0.146,0.437 -0.146,0.51 -0.072,0.145 -0.146,0.218 -0.146,0.291 0,0.072 0,0.072 0,0.072 -0.145,0.363 -0.145,0.654 0,0.873 0.073,0.218 0.291,0.291 0.655,0.291 0.146,0 0.363,0 0.509,-0.073 0.146,-0.073 0.291,-0.146 0.363,-0.146 0.146,-0.072 0.219,-0.146 0.364,-0.219 0.072,0 0.146,-0.072 0.218,-0.072 0.146,0 0.219,0.072 0.219,0.072 0.072,0.073 0.072,0.146 0.072,0.219 l 0.291,1.673 v 0 c -0.654,0.437 -1.309,0.728 -1.964,0.945 -0.654,0.218 -1.309,0.291 -1.964,0.291 -1.015,0.002 -1.743,-0.216 -2.106,-0.798 z"
     id="path5" /></g>
	</g>
</g>
</svg>
