<?xml version="1.0" encoding="UTF-8"?>
<svg xmlns="http://www.w3.org/2000/svg" version="1.1" xmlns:inkscape="http://www.inkscape.org/namespaces/inkscape" xmlns:sodipodi="http://sodipodi.sourceforge.net/DTD/sodipodi-0.dtd" xmlns:svg="http://www.w3.org/2000/svg" viewBox="0 0 740 450">
  <defs>
    <style>
      .cls-1 {
        fill: #c8202d;
      }

      .cls-1, .cls-2, .cls-3 {
        fill-rule: evenodd;
      }

      .cls-2 {
        fill: #fff;
        stroke: #010101;
        stroke-linecap: square;
        stroke-miterlimit: 10;
        stroke-width: 0px;
      }

      .cls-3 {
        fill: #21285a;
      }
    </style>
  </defs>
  <!-- Generator: Adobe Illustrator 28.7.4, SVG Export Plug-In . SVG Version: 1.2.0 Build 166)  -->
  <g>
    <g id="Layer_1" sodipodi:docname="iceni_master.svg">
      <sodipodi:namedview id="namedview6" bordercolor="#000000" borderopacity="0.25" inkscape:current-layer="g5" inkscape:cx="483.36611" inkscape:cy="382.93054" inkscape:deskcolor="#d1d1d1" inkscape:pagecheckerboard="0" inkscape:pageopacity="0.0" inkscape:showpageshadow="2" inkscape:window-height="2081" inkscape:window-maximized="1" inkscape:window-width="3840" inkscape:window-x="1341" inkscape:window-y="-9" inkscape:zoom="1.5681695" pagecolor="#ffffff" showguides="true"/>
      <g id="g6">
        <g id="g8">
          <path id="path1" class="cls-2" d="M282.1,123.4H84c-14,0-25.2,11.3-25.2,25.2h0v252.5c0,13.9,11.3,25.2,25.2,25.2h571.9c14,0,25.2-11.3,25.2-25.2h0v-252.5c0-13.9-11.3-25.2-25.2-25.2h-205.4l4.5-25.4-30.8-53.3-57.9-21-57.9,21-30.8,53.3,4.5,25.4Z"/>
          <path id="path2" class="cls-3" d="M289,265.9h-24.6c-2.3,15.1-12,22.6-29.3,22.6s-36.2-13.7-36.2-38.5,12.9-39.7,36.4-39.7,20.3,3.6,25.7,10c3.4,4.1,4.7,7.8,5.3,14.9h21.2v-37.4h-19.6v12.7c-2.7-3.8-4.3-5.5-7.3-7.5-6.7-4.7-17.6-7.3-30.2-7.3-35.3,0-56.8,19.9-56.8,52.8s22.5,54.3,61.7,54.3c32.4,0,52.4-13.8,53.7-37.1h0ZM342.7,241.5v-29.5h50.4v17.4h19.6v-31.4h-109.4v14h15.3v74.8h-15.3v14.1h109.4v-32.9h-19.6v18.8h-50.4v-31.1h21.7v12.3h16.4v-38.6h-16.4v12.1h-21.7ZM516.2,301h32.1v-88.9h14.2v-14h-51.3v14h17.4v70.3l-50.1-84.4h-50v14h15.2v74.8h-15.2v14.1h52.1v-14.1h-17.6v-73.3l53.2,87.4ZM592.5,286.9h-15.9v14.1h57.3v-14.1h-17.2v-74.8h17.2v-14h-57.3v14h15.9v74.8ZM121.9,286.9h-15.9v14.1h57.3v-14.1h-17.2v-74.8h17.2v-14h-57.3v14h15.9v74.8h0Z"/>
          <path id="path3" class="cls-3" d="M194.9,319.9h8.2c1.7,0,3.2.2,4.4.9,1.2.7,2,1.5,2.7,2.7.6,1.1,1,2.5,1.3,3.9.2,1.5.4,3.2.4,4.9s-.1,3.5-.4,5.1c-.3,1.6-.7,3.1-1.3,4.4-.7,1.2-1.5,2.2-2.7,2.9-1.1.7-2.6,1.1-4.4,1.1h-8.2v-25.9ZM230.8,349.6v-17.5c.7-.3,1.5-.7,2.5-1.1.9-.4,2-.8,3.2-1.2,1.2-.4,2.3-.7,3.4-.9h0v-4.1c-1.2.1-2.3.5-3.5.9s-2.2.9-3.1,1.4c-1,.6-1.8,1-2.5,1.5h0v-3.2h-4.3v24.2h4.3ZM252.3,349.6v-24.2h-4.2v24.2h4.2ZM252.3,320.2v-4.5h-4.2v4.5h4.2ZM276.4,349.6l7-24.2h-4.5l-5.8,20.7h-1.8l-5.6-20.7h-4.7l6.9,24.2h8.5ZM296.1,349.6v-24.2h-4.3v24.2h4.3ZM296.1,320.2v-4.5h-4.3v4.5h4.3ZM311.3,349.6v-19.3c.5-.2,1.2-.5,1.9-.8.8-.2,1.6-.4,2.5-.7.9-.1,1.7-.2,2.5-.2,1.5,0,2.7.3,3.4.8.7.5,1.2,1.5,1.5,2.7.2,1.2.3,2.8.3,4.9h0v12.7h4.4v-12.8c0-2.2,0-4-.4-5.5-.2-1.5-.7-2.7-1.3-3.7-.7-.9-1.5-1.6-2.7-2-1.2-.4-2.5-.7-4.4-.7s-1.7,0-2.8.4c-.9.2-1.9.4-2.7.8-.9.4-1.7.7-2.3.9h0v-1.6h-4.2v24.2h4.2ZM356.8,359.1c2-1.2,3-3.2,3-6s-.3-3.5-.9-4.5c-.7-1-1.7-1.7-3.1-2-1.5-.4-3.4-.6-5.8-.6s-2.5,0-3.3-.1c-.8,0-1.5-.1-1.8-.3-.4-.1-.7-.4-.8-.6-.1-.3-.2-.7-.2-1.2s.1-.6.3-1.2c.2-.5.4-.9.6-1.4.3,0,.7,0,1.3,0,.5,0,.9,0,1.2,0,2.3,0,4.1-.2,5.6-.7,1.5-.4,2.5-1.3,3.3-2.5.8-1.2,1.2-2.9,1.2-5s-.1-2.1-.5-2.8c-.3-.7-.7-1.3-1.2-1.7h4.7c0,0,0-3.3,0-3.3h-7.7c-.6,0-1.4,0-2.4-.2-1-.1-2-.2-2.9-.2-1.9,0-3.6.3-5.1.8-1.5.6-2.6,1.5-3.3,2.6-.8,1.2-1.2,2.9-1.2,4.9s.2,2.7.6,3.7c.4.9.9,1.7,1.5,2.3.6.6,1.2,1,2,1.4-.3.4-.5.9-.8,1.3-.3.5-.5,1-.7,1.5-.1.4-.3.8-.3,1,0,.7.1,1.4.4,2,.2.7.6,1.1,1,1.5-.9.6-1.7,1.2-2.2,1.7-.6.6-1,1.2-1.4,1.8-.3.7-.4,1.5-.4,2.4,0,1.9.4,3.3,1.2,4.4.8,1.1,2,1.8,3.6,2.3,1.7.4,3.8.7,6.5.7,3.6,0,6.5-.7,8.5-1.9h0ZM344,357.1c-1-.3-1.7-.7-2-1.4-.4-.6-.7-1.4-.7-2.4s.1-1.1.3-1.5c.1-.4.4-.9.8-1.2.4-.4.9-.8,1.6-1.2h.9c.4,0,.9,0,1.5,0,.6,0,1.1,0,1.6,0h1.3c1.5,0,2.7.1,3.6.3.9.1,1.5.5,2,1,.4.6.5,1.5.5,2.5s-.5,2.5-1.7,3.2c-1.2.7-3,1-5.5,1-1.8,0-3.3-.1-4.3-.4h0ZM343.1,337c-.9-.7-1.2-2-1.2-3.9s.4-3.1,1.2-3.9c.8-.8,2.2-1.2,4.1-1.2s3.5.4,4.4,1.2c.9.7,1.2,2,1.2,3.9s-.4,3.1-1.2,3.9c-.9.7-2.3,1.2-4.4,1.2s-3.3-.4-4.1-1.2ZM407.2,349c1.7-.7,3.1-1.8,4-3.3.9-1.5,1.4-3.6,1.4-6s-.2-2.6-.6-3.6c-.4-1-1-1.9-1.9-2.5-.9-.7-1.9-1.2-3.2-1.7-1.2-.4-2.8-.9-4.7-1.3-2-.4-3.6-.8-4.7-1.2-1.2-.4-2.1-.9-2.7-1.7-.5-.7-.8-1.7-.8-3.1s.3-2.1.9-2.9c.6-.7,1.4-1.3,2.5-1.7,1-.4,2.3-.5,3.9-.5s1.7,0,3,.1c1.2,0,2.4.1,3.7.2,1.2.2,2.5.3,3.5.4h0l.3-3.6c-.9-.1-2-.3-3.3-.4-1.2-.1-2.6-.3-3.9-.4-1.3,0-2.5-.1-3.5-.1-2.3,0-4.4.3-6,.9-1.7.7-3.1,1.6-4.1,2.9-.9,1.3-1.4,3.1-1.4,5.4s.1,2.9.7,3.9c.4,1.1,1.1,2,2,2.7.9.7,2.1,1.3,3.4,1.7,1.4.4,3,.9,4.9,1.2,1.9.3,3.3.7,4.5,1.1,1,.4,1.9.9,2.3,1.7.4.7.7,1.7.7,2.8s-.3,2.6-.8,3.5c-.6.9-1.3,1.7-2.4,2.1s-2.4.7-3.9.7-2,0-3.3-.1c-1.2,0-2.6-.1-3.9-.3-1.3-.1-2.5-.3-3.6-.4h0l-.4,3.5c1,.1,2.2.3,3.6.4,1.4.2,2.8.4,4.1.4,1.4.1,2.5.2,3.6.2,2.3,0,4.4-.4,6-1.1h0ZM437.5,349.9c.9,0,1.7-.1,2.7-.2.9,0,1.7-.2,2.3-.4h0v-3.3c-.7,0-1.4.1-2.1.1-.8,0-1.5.1-2.3.1-.7,0-1.4.1-1.8.1-2,0-3.5-.3-4.5-.9-1-.6-1.7-1.5-2-2.9-.4-1.3-.6-3.2-.6-5.5s.2-3.8.6-5c.4-1.2,1.2-2.1,2.2-2.7,1-.5,2.5-.8,4.4-.8h1.8c.7,0,1.5.1,2.2.2.8,0,1.5.1,2,.2h0v-3.4c-.5,0-1.2-.2-2.1-.4-.9,0-1.8-.1-2.7-.3-.8,0-1.5,0-2.2,0-2.5,0-4.5.4-6.1,1.2-1.5.8-2.8,2.1-3.4,3.9-.7,1.8-1.1,4.1-1.1,7.1s.3,5.7.9,7.6c.7,1.9,1.7,3.3,3.3,4.1,1.5.9,3.6,1.3,6.4,1.3.6,0,1.4,0,2.2-.1h0ZM456.2,349.6v-19.7c.5-.1,1.1-.4,1.8-.6.8-.2,1.6-.4,2.5-.6.9-.1,1.7-.1,2.5-.1,1.5,0,2.7.3,3.4.8.7.5,1.2,1.5,1.5,2.7.2,1.2.4,2.8.4,4.9h0v12.7h4.3v-12.9c0-2.1,0-3.9-.4-5.5-.2-1.5-.7-2.7-1.2-3.7-.7-.9-1.5-1.6-2.6-2-1.2-.4-2.6-.7-4.4-.7s-1.7,0-2.7.2c-.9.2-1.9.4-2.8.7-.9.3-1.6.6-2.2.8h0v-11.7h-4.3v34.7h4.3ZM499.9,348.7c1.6-.9,2.8-2.4,3.4-4.3.7-1.9,1-4.2,1-7.2s-.4-5.1-1.1-6.9-1.9-3.1-3.5-4.1c-1.7-.9-3.9-1.3-6.5-1.3s-4.9.4-6.5,1.3c-1.6.9-2.8,2.3-3.5,4.1s-1.1,4.1-1.1,6.9.3,5.3.9,7.2c.7,1.9,1.8,3.3,3.4,4.3,1.6.9,3.9,1.4,6.7,1.4s5.2-.4,6.7-1.4h0ZM488.9,345.5c-.9-.6-1.6-1.6-1.9-3-.3-1.4-.4-3.2-.4-5.4s.2-3.9.6-5.2c.4-1.3,1.1-2.3,2-2.8,1-.5,2.3-.8,4-.8s3.1.3,4,.8c1,.5,1.7,1.5,2,2.8.4,1.3.6,3,.6,5.2s-.1,4-.4,5.4c-.3,1.4-.9,2.4-1.9,3-.9.7-2.4,1-4.3,1-1.9,0-3.3-.4-4.3-1h0ZM530.7,348.7c1.6-.9,2.8-2.4,3.4-4.3.7-1.9.9-4.2.9-7.2s-.4-5.1-1-6.9c-.7-1.8-1.9-3.1-3.6-4.1-1.6-.9-3.8-1.3-6.5-1.3s-4.9.4-6.5,1.3c-1.7.9-2.8,2.3-3.6,4.1-.7,1.8-1,4.1-1,6.9s.3,5.3.9,7.2c.7,1.9,1.7,3.3,3.4,4.3,1.6.9,3.8,1.4,6.7,1.4s5.1-.4,6.7-1.4h0ZM519.7,345.5c-1-.6-1.6-1.6-1.9-3-.3-1.4-.4-3.2-.4-5.4s.1-3.9.6-5.2c.4-1.3,1.1-2.3,2-2.8.9-.5,2.3-.8,4-.8s3.1.3,4,.8c.9.5,1.6,1.5,2,2.8.4,1.3.6,3,.6,5.2s-.1,4-.5,5.4c-.3,1.4-.9,2.4-1.9,3-.9.7-2.3,1-4.2,1s-3.3-.4-4.3-1ZM549.6,349.6v-34.7h-4.4v34.7h4.4ZM203.2,349.6c2.5,0,4.7-.4,6.5-1.3,1.7-.9,3.1-2.1,4.1-3.7,1-1.5,1.7-3.3,2.1-5.5.4-2.1.6-4.3.6-6.8s-.1-4.7-.6-6.6c-.4-2-1.2-3.7-2.1-5.1-1-1.4-2.4-2.5-4.1-3.3-1.7-.7-3.9-1.2-6.5-1.2h-12.7v33.5h12.8Z"/>
          <path id="path4" class="cls-3" d="M357.2,127.6c1,1.7,2,3.3,2.8,4.9,5.5-5.5,11.1-11.1,16.5-16.4-1.2-1.3-2.5-2.7-3.8-4l-15.6,15.6ZM387.8,117.2c-5.5-5.5-11.1-11.1-16.6-16.6-1.2,1.2-2.5,2.5-3.8,3.8,5.2,5.2,10.4,10.4,15.6,15.6,1.7-.9,3.3-2,4.8-2.8h0ZM361.1,98.5c1.5-1.5,2.8-2.8,4.2-4.2-1.2-1.2-2.5-2.4-3.8-3.7-4.6-4.9-10-8.7-16.6-10.3-1.1-.2-2.1-.4-3.2-.7v5.9c5.5,1,10,3.4,13.7,7.2,1.8,1.9,3.7,3.9,5.6,5.8h0ZM349.5,112.1c-7.1,6.3-13.5,13.2-14.6,23.5h3.9c1.7,0,1.7-.1,2.2-1.9,0,0,0,0,0-.1,1.5-5.2,4.2-9.5,8.2-13.1,1.5-1.5,3-2.8,4.4-4.2-1.5-1.5-2.8-2.8-4.1-4.1h0ZM383.1,110c1.5-1.5,2.9-2.9,4.4-4.4,2.3-2.3,4.5-4.8,6.2-7.6,2.1-3.6,3.4-7.3,4-11.6-1.3,0-2.6,0-3.9,0-1.7.1-1.7.2-2.3,2,0,0,0,.2,0,.3-1.5,5-4.1,9.2-8,12.8-1.5,1.4-3.1,2.9-4.6,4.4,1.5,1.5,2.8,2.8,4.2,4.1h0ZM367.3,127.6c6.4,7.2,13.2,13.6,23.4,14.7v-4.9c0-.7-.2-.9-.9-1-4-.9-7.6-2.5-10.7-5.2-1.7-1.5-3.4-3.2-5.1-4.8-.9-.9-1.8-1.8-2.7-2.7-1.5,1.4-2.8,2.7-4.1,3.9h0ZM397.7,78c-.9-10.3-8.3-20.5-17.2-24.8-15,14.3-11.8,36.5,2.5,47,1.2-1.4,2.4-2.8,3.7-4.3-5.6-4.4-9-9.8-10-16.6-1-6.8.7-13.1,4.9-18.7,5.7,4.5,9.2,10.3,10.4,17.4,1.9,0,3.8,0,5.7,0h0ZM381.5,131.4c4.4-5.5,9.8-8.9,16.6-10,6.8-1,13.1.7,18.7,4.9-4.5,5.7-10.3,9.2-17.4,10.4v5.7c8.6-.5,19.6-6.8,24.8-17.1-12.9-14-35.3-13-47.1,2.3,1.5,1.2,2.8,2.5,4.4,3.8h0ZM334.8,144c0,.4,0,.7,0,1,.9,5.8,3.2,11,6.9,15.5,2.7,3.3,5.9,6,9.6,8.1.5.3.7.2,1.2-.1,2.6-2.8,4.9-5.7,6.5-9.2,2.5-5.7,3.5-11.6,2.5-17.7-.9-5.6-3.1-10.6-6.8-14.9-1.5-1.7-3.2-3.2-4.9-4.9-1.4,1.6-2.6,3.1-3.9,4.4,13.7,10.8,11.6,27.5,4.9,35.3-5.7-4.5-9.2-10.3-10.3-17.4-2,0-3.8,0-5.7,0ZM308.3,96.6c14.5,15.4,37.3,11.6,47.1-2.4-1.4-1.2-2.8-2.4-4.2-3.6-10.7,14-27.9,11.3-35.3,5,4.4-5.7,10.3-9.2,17.3-10.3v-5.8c-11.1,1.7-19.3,7.4-24.9,17.2h0ZM350.8,133.2c-14.5,8.5-29.5,1.3-34.9-6.9,3-2.5,8-4.5,11.9-4.9,3.3-.4,6.5-.2,9.8.7.3,0,.8,0,.9-.1,1.2-1.5,2.3-3,3.4-4.4-12.4-5-26.1-.7-33.6,7.9,2.5,4.8,6.1,8.8,10.6,11.8,6.3,4.2,13.2,6.1,20.7,5.5,4.6-.4,8.9-1.7,12.9-3.9.7-.3.7-.7.4-1.3-.7-1.4-1.5-2.8-2.2-4.3h0ZM359.8,86.8c4.9-12.5.7-25.8-7.9-33.7-.5.4-1,.7-1.6,1-6.6,4-11.2,9.7-13.9,16.9-1.9,5.2-2.4,10.5-1.5,15.9.7,3.6,1.8,7.1,3.7,10.4.1.2.7.6.8.5,1.6-.7,3.2-1.5,4.7-2.3-8.1-13.8-2.3-28.5,6.8-35,2.2,2.3,4.5,7.8,4.9,11.6.4,3.3.2,6.7-.7,10-.1.4-.1.9,0,1.1,1.5,1.2,3,2.3,4.5,3.4h0ZM380.6,168.9q0,0,.1,0c.4-.1.7-.4,1-.6,6.6-3.9,11.3-9.4,14.2-16.5,2.1-5.5,2.7-11.1,1.7-16.8-.6-3.6-1.7-7.1-3.6-10.3-.1-.3-.7-.6-.9-.5-1.6.7-3.2,1.5-4.7,2.3,8.5,14.6,1.4,29.4-7.1,35-.9-1.6-2-3.3-2.7-4.9-2.5-5.4-2.9-11-1.4-16.7.1-.4.1-.9,0-1.1-1.5-1.2-3-2.3-4.4-3.4-4.7,10.9-1.4,25.5,7.8,33.6h0ZM390.5,104.4c11.4,4.9,25.7,1.3,33.7-7.9-.2-.3-.4-.7-.7-1-4.1-7-10-11.8-17.5-14.5-5.1-1.8-10.4-2.3-15.8-1.4-3.6.7-7.1,1.8-10.3,3.6-.4.2-.8.4-.5,1,.8,1.5,1.5,3.1,2.3,4.6,14.7-8.7,29.5-1.2,35,6.8-2.6,2.3-7.6,4.4-11.6,4.9-3.3.4-6.6.3-9.9-.6-.4-.1-1-.1-1.2,0-1.2,1.5-2.3,2.9-3.4,4.4ZM361.2,121.5c1.3-1.3,2.6-2.6,3.9-3.9-5.2-5.2-10.4-10.5-15.6-15.6-1.7.9-3.3,2-4.9,2.9,5.5,5.5,11.1,11.1,16.6,16.6h0ZM366.3,34.2l49.6,18,26.4,45.7-9.2,51.9-40.4,33.9h-52.8l-40.4-33.9-9.2-51.9,26.3-45.7,49.6-18ZM366.3,40.3l45.7,16.7,24.3,42-8.4,47.9-37.2,31.2h-48.7l-37.2-31.2-8.4-47.9,24.3-42,45.7-16.7ZM372.4,89.4c-5.6,5.6-11.2,11.1-16.6,16.5,1.2,1.3,2.5,2.6,3.8,3.9,5.2-5.2,10.4-10.4,15.6-15.6-1-1.7-2-3.3-2.8-4.9Z"/>
          <path id="path5" class="cls-1" d="M147.9,414.2h-63.9c-3.6,0-6.7-1.3-9.2-3.9-2.6-2.5-3.9-5.7-3.9-9.3h0v-252.4c0-3.6,1.2-6.7,3.9-9.3,2.5-2.5,5.6-3.8,9.2-3.8h206.3l-1-6.1H84.1c-5.3,0-9.8,1.9-13.5,5.6s-5.7,8.3-5.7,13.6h0v252.4c0,5.3,1.9,9.8,5.7,13.6,3.7,3.7,8.2,5.6,13.5,5.6h63.9v-6ZM592.1,414.2h63.9c3.6,0,6.8-1.3,9.3-3.9,2.5-2.5,3.9-5.7,3.9-9.3h0v-252.4c0-3.6-1.3-6.7-3.9-9.3-2.5-2.5-5.7-3.8-9.3-3.8h-213.7l1.1-6.1h212.6c5.3,0,9.8,1.9,13.6,5.6,3.7,3.8,5.6,8.3,5.6,13.6h0v252.4c0,5.3-1.9,9.8-5.6,13.6-3.8,3.7-8.3,5.6-13.6,5.6h-63.9v-6ZM154,414.2v-31.2c0-6.7,5.4-12.1,12.1-12.1h407.8c6.7,0,12.1,5.4,12.1,12.1h0v37.2H154v-6ZM190.2,391c.1-.4,0-.7,0-.8-.1-.1-.4-.3-.7-.3h-1.7l-7.8,18.8h3.3l2.4-5.7c.3.4.6.7,1.1.9.4.2.9.3,1.6.3s1.2,0,1.9-.4c.7-.2,1.3-.5,2-.9.7-.4,1.2-.9,1.8-1.5.6-.6,1.2-1.2,1.7-1.9.5-.7.9-1.5,1.3-2.2.4-.8.7-1.5.9-2.3.3-.9.4-1.7.4-2.3s-.1-1.2-.3-1.7c-.2-.4-.5-.7-.9-.9-.4-.2-.9-.3-1.5-.3-.9,0-2,.3-3,.9-1,.6-2,1.4-3,2.4h0l.7-2ZM187.9,397.3c.4-.7.9-1.3,1.4-2,.5-.6.9-1.1,1.5-1.5.5-.4,1-.8,1.5-1.1.4-.2.9-.4,1.2-.4.6,0,.9.3,1.2.7.1.5.1,1.2-.1,2.2-.3.8-.6,1.5-1,2.3-.4.7-.9,1.4-1.4,2-.6.6-1.2,1.1-1.7,1.5-.6.4-1.2.6-1.8.6s-.7,0-1.1-.2c-.4-.1-.7-.4-.9-.7h0l1.4-3.4ZM212.9,390h3.4l-5.9,14h-1.7c-.7,0-1.1-.4-.8-1.2l.5-1.6h0c-1,1-2,1.7-3,2.3-1,.5-2,.7-2.8.7s-1.1,0-1.5-.4c-.4-.2-.7-.6-.9-1s-.2-1-.1-1.7c0-.7.3-1.5.7-2.3l3.7-8.9h3.4l-3.7,8.9h0c-.4.9-.6,1.6-.5,2,.1.4.4.6,1,.6s.7,0,1.2-.3c.4-.2.9-.5,1.3-.9.5-.4.9-.8,1.4-1.4.5-.5.9-1.1,1.3-1.7l3-7.2ZM217.9,403.4c-.4-.5-.5-1.3-.2-2.3v-.2c0,0,0-.2.1-.4,0-.1.1-.4.3-.7,0-.2.3-.7.4-1.1l2.6-6.3h-1.3c-.1,0-.3,0-.4-.1,0,0,0-.3,0-.6l.6-1.3,2.3-.4,2.3-3.9h0c0-.1.2-.3.4-.4.2,0,.4-.1.6-.1h1.8l-1.9,4.4h3.4l-1,2.4h-3.4l-2.5,6.2h0c-.2.4-.3.7-.4.9-.1.2-.2.4-.2.5,0,.1-.1.2-.1.3h0c-.1.4-.1.7,0,.9,0,.2.3.3.7.3s.4,0,.5,0c.1,0,.3-.1.4-.1.1,0,.3-.1.4-.2,0,0,.1,0,.2,0,.1,0,.2,0,.2,0,0,0,0,.1,0,.2l.3,1.7h0c-.7.4-1.3.7-2,.9-.7.2-1.3.3-2,.3-1,0-1.7-.2-2.1-.8h0ZM229.4,403.4c-.4-.5-.5-1.3-.3-2.3,0,0,0-.1,0-.2,0,0,0-.2.1-.4,0-.1.1-.4.3-.7,0-.2.2-.7.4-1.1l2.6-6.3h-1.3c-.1,0-.3,0-.4-.1,0,0,0-.3,0-.6l.6-1.3,2.3-.4,2.3-3.9h0c0-.1.2-.3.4-.4.2,0,.4-.1.6-.1h1.8l-1.9,4.4h3.4l-1,2.4h-3.4l-2.6,6.2h0c-.1.4-.2.7-.4.9,0,.2-.1.4-.1.5,0,.1-.1.2-.1.3h0c-.1.4-.1.7,0,.9,0,.2.3.3.7.3s.4,0,.5,0,.3-.1.4-.1c.1,0,.2-.1.4-.2,0,0,.1,0,.2,0,.1,0,.2,0,.2,0,0,0,0,.1,0,.2l.3,1.7h0c-.7.4-1.3.7-2,.9-.7.2-1.4.3-2,.3-1,0-1.7-.2-2.1-.8h0ZM250.2,385c0-.3-.1-.5-.2-.7-.1-.1-.4-.3-.6-.4-.2,0-.4-.1-.7-.1s-.6,0-.9.1c-.2.1-.5.3-.8.5-.2.1-.4.4-.7.7-.2.3-.4.6-.4.8,0,.4,0,.6,0,.9s.1.5.3.7c.1.2.3.4.5.5.2,0,.4.1.7.1s.6,0,.8-.1c.3-.1.6-.3.9-.5.2-.1.4-.4.7-.7s.4-.5.4-.9c.1-.3.1-.5,0-.8h0ZM244.7,389.9l-5.9,14.1h3.3l5.9-14.1h-3.3ZM255.4,391l-.6,1.9h0c1-1.1,2-1.9,3.1-2.4,1-.5,2-.7,2.9-.7s1.1,0,1.5.3c.4.3.7.6.8,1.1.2.4.2,1,.1,1.7,0,.7-.3,1.4-.7,2.3l-3.7,8.9h-3.3l3.6-8.9h0c.4-.9.6-1.6.4-2,0-.4-.4-.6-.9-.6s-.8,0-1.2.3-.9.5-1.4.9c-.5.4-1,.9-1.5,1.4-.5.6-.9,1.2-1.3,1.9l-2.8,7h-3.4l5.9-14.1h1.7c.4,0,.7.1.8.3.1.1.1.4,0,.8h0ZM270.3,396.8c-.2-.4-.2-.9,0-1.6.1-.4.3-.8.5-1.2.2-.4.5-.7.8-1,.3-.3.7-.5,1-.7.4-.2.7-.3,1.2-.3s1,.2,1.2.5c.2.4.2.9,0,1.6-.1.4-.3.8-.5,1.2-.2.4-.5.7-.8,1-.3.4-.7.6-1,.8-.4.1-.7.2-1.2.2-.6,0-1-.1-1.2-.6ZM277.5,390.4c-.4-.2-.7-.4-1.2-.5s-.9-.1-1.5-.1c-.9,0-1.9.1-2.7.4-.9.3-1.6.7-2.3,1.2-.7.5-1.2,1.1-1.7,1.7-.4.7-.7,1.3-.9,2-.2.7-.3,1.3-.3,1.9,0,.5.3.9.5,1.3.3.4.7.7,1,.8.4.2.9.3,1.5.3s1.2,0,1.7-.2.9-.3,1.4-.6c-.5.7-.9,1.2-1,1.8,0,.3,0,.6,0,.9-.6,0-1.2-.1-1.7-.1s-1.3,0-2,0c-.7,0-1.3.2-2,.4-.7.1-1.2.4-1.7.7-.6.4-1.1.7-1.5,1.2-.4.4-.7,1-.9,1.7-.1.5-.1,1,0,1.5.1.4.4.8.8,1.1.4.4.9.6,1.5.8.7.1,1.4.2,2.3.2s2-.1,3-.4c.9-.2,1.7-.6,2.5-1.1.7-.4,1.3-1,1.8-1.6.5-.7.9-1.3,1.1-2,.1-.5.2-.9.1-1.3,0-.4-.1-.7-.2-1,0-.4-.1-.7-.2-1,0-.3,0-.7,0-1,.1-.4.2-.7.4-.9.1-.3.4-.6.6-.8.2-.3.4-.5.7-.8.2-.2.4-.5.7-.8s.4-.6.7-.9c.1-.3.4-.7.4-1.2,0-.2.1-.4.1-.6,0-.2,0-.4,0-.6h0l1.6-.4c.4-.1.7-.4.9-.9h0l.4-1.1h-3.9ZM265.7,406.2c-.4-.3-.4-.7-.3-1.2,0-.3.3-.6.6-.9.4-.3.7-.5,1.3-.7.5-.2,1.2-.3,2-.3s1.7,0,2.7.2c0,0,0,.2,0,.4,0,.1,0,.2,0,.4,0,.4-.3.7-.5,1-.3.3-.6.6-.9.8-.4.2-.8.4-1.2.5-.5.1-.9.2-1.5.2-.9,0-1.6-.1-2-.4h0ZM296.4,403.6c1-.4,2-1,2.9-1.8.9-.8,1.7-1.7,2.4-2.8.7-1,1.2-2.2,1.6-3.3.3-.9.4-1.8.3-2.5,0-.7-.2-1.4-.6-1.8-.3-.5-.8-.9-1.4-1.2-.6-.3-1.2-.4-2-.4s-2,.2-3.1.7-2,1-2.9,1.8c-.9.7-1.7,1.7-2.4,2.7-.7,1.1-1.2,2.2-1.6,3.4-.3.9-.4,1.7-.4,2.5,0,.7.3,1.3.7,1.8.3.5.7.9,1.3,1.2s1.3.4,2.1.4c1,0,2-.2,3.1-.7h0ZM292.9,400.8c-.3-.5-.2-1.4.1-2.5.2-.8.5-1.5.9-2.3.4-.7.8-1.3,1.2-1.9.5-.6,1-1,1.6-1.3.6-.3,1.1-.5,1.7-.5s1.3.3,1.5.8c.2.6.2,1.4-.1,2.5-.2.8-.6,1.6-.9,2.3-.4.7-.8,1.3-1.3,1.9-.5.5-1,.9-1.5,1.3-.6.3-1.2.4-1.7.4s-1.2-.2-1.5-.8h0ZM318.6,390h3.4l-5.9,14h-1.7c-.8,0-1.1-.4-.9-1.2l.5-1.6h0c-.9,1-2,1.7-3,2.3-1,.5-2,.7-2.8.7s-1.1,0-1.5-.4c-.4-.2-.7-.6-.9-1s-.2-1-.1-1.7c0-.7.3-1.5.7-2.3l3.7-8.9h3.4l-3.7,8.9h0c-.4.9-.6,1.6-.5,2,.1.4.4.6,1,.6s.7,0,1.2-.3c.4-.2.9-.5,1.3-.9.5-.4.9-.8,1.4-1.4.5-.5.9-1.1,1.3-1.7l3-7.2ZM329.7,391l-.7,2.3h0c.5-.7,1.1-1.3,1.6-1.8.6-.5,1.2-.9,1.7-1.2.5-.3,1-.4,1.5-.5.4,0,.9,0,1.3.2l-1.6,3.3h0c-.9-.5-2-.4-3.1.4-1,.7-2.1,2-3.2,4.1l-2.6,6.3h-3.3l5.9-14.1h1.7c.4,0,.6,0,.7.3.1.1.2.4,0,.8h0ZM349.2,391c.1-.4,0-.7,0-.8s-.4-.3-.7-.3h-1.7l-7.9,18.8h3.3l2.3-5.7c.3.4.6.7,1.1.9.4.2.9.3,1.6.3s1.2,0,1.9-.4c.7-.2,1.3-.5,2-.9.7-.4,1.2-.9,1.8-1.5.6-.6,1.2-1.2,1.7-1.9.5-.7.9-1.5,1.4-2.2.4-.8.7-1.5.9-2.3.2-.9.4-1.7.4-2.3s0-1.2-.3-1.7-.5-.7-.9-.9c-.4-.2-.9-.3-1.5-.3-1,0-2,.3-3.1.9-1,.6-2,1.4-3,2.4h0l.7-2ZM346.8,397.3c.4-.7.9-1.3,1.4-2,.5-.6,1-1.1,1.5-1.5.5-.4,1-.8,1.5-1.1.4-.2.9-.4,1.2-.4.6,0,.9.3,1.2.7.1.5.1,1.2-.1,2.2-.2.8-.6,1.5-.9,2.3-.4.7-.9,1.4-1.5,2-.5.6-1.1,1.1-1.7,1.5-.6.4-1.2.6-1.8.6s-.7,0-1.1-.2c-.4-.1-.7-.4-.9-.7h0l1.4-3.4ZM371.8,390h3.4l-5.9,14h-1.7c-.8,0-1.1-.4-.8-1.2l.5-1.6h0c-1,1-2,1.7-3,2.3-1,.5-2,.7-2.8.7s-1.1,0-1.5-.4c-.4-.2-.7-.6-.9-1s-.2-1-.1-1.7c0-.7.3-1.5.7-2.3l3.7-8.9h3.4l-3.8,8.9h0c-.4.9-.5,1.6-.4,2,.1.4.4.6,1,.6s.7,0,1.2-.3c.5-.2.9-.5,1.4-.9.5-.4.9-.8,1.4-1.4.4-.5.9-1.1,1.3-1.7l3-7.2ZM383,391c.1-.4,0-.7,0-.8s-.4-.3-.7-.3h-1.7l-7.9,18.8h3.3l2.4-5.7c.3.4.6.7,1.1.9.4.2.9.3,1.6.3s1.2,0,1.9-.4c.7-.2,1.3-.5,2-.9.7-.4,1.2-.9,1.8-1.5.6-.6,1.2-1.2,1.7-1.9.5-.7.9-1.5,1.4-2.2.4-.8.7-1.5.9-2.3.3-.9.4-1.7.4-2.3s0-1.2-.3-1.7c-.2-.4-.5-.7-.9-.9-.4-.2-.9-.3-1.5-.3-.9,0-2,.3-3,.9-1,.6-2,1.4-3,2.4h0l.7-2ZM380.7,397.3c.4-.7.9-1.3,1.4-2,.5-.6.9-1.1,1.5-1.5.5-.4,1-.8,1.5-1.1.4-.2.9-.4,1.2-.4.6,0,.9.3,1.2.7.1.5.1,1.2-.1,2.2-.3.8-.6,1.5-1,2.3-.4.7-.9,1.4-1.4,2-.6.6-1.2,1.1-1.7,1.5-.6.4-1.2.6-1.8.6s-.7,0-1.1-.2c-.4-.1-.7-.4-.9-.7h0l1.4-3.4ZM402.9,385c0-.3-.1-.5-.3-.7-.1-.1-.3-.3-.5-.4-.2,0-.5-.1-.8-.1s-.5,0-.8.1c-.3.1-.6.3-.8.5-.2.1-.5.4-.7.7-.2.3-.4.6-.4.8,0,.4-.1.6,0,.9,0,.3.1.5.2.7.1.2.4.4.6.5.2,0,.4.1.7.1s.6,0,.9-.1c.3-.1.6-.3.8-.5.3-.1.5-.4.7-.7.2-.3.4-.5.4-.9,0-.3,0-.5,0-.8h0ZM397.4,389.9l-5.8,14.1h3.3l5.8-14.1h-3.3ZM403.6,404h-3.3l8.6-20.4h3.3l-8.6,20.4ZM422.9,391.4l-1.2,1.2h0c-.2.1-.3.3-.4.3-.1,0-.3,0-.4,0s-.3,0-.4,0c-.1-.1-.3-.2-.5-.4-.1,0-.4-.2-.7-.3-.2,0-.5-.1-.9-.1-.7,0-1.3.1-1.8.5-.4.3-.8.7-.9,1.2,0,.4,0,.7.1.9.2.2.5.4.9.6.4.2.7.4,1.2.6.4.1.8.4,1.2.7.3.3.5.7.7,1,0,.4,0,1-.1,1.7-.1.7-.5,1.3-.9,1.9-.4.7-1,1.2-1.7,1.7-.7.4-1.3.8-2.1,1.1-.8.3-1.7.4-2.5.4s-.9,0-1.2,0c-.4-.1-.8-.2-1.1-.4-.3-.2-.6-.4-.8-.6-.3-.2-.4-.4-.6-.7l1.2-1.3h0c.1-.1.3-.3.4-.4.1,0,.4-.1.6-.1s.3,0,.4.2c.1,0,.2.2.4.4.1.1.4.3.7.4.2.1.6.2,1.1.2s.7,0,1-.1c.4,0,.6-.2.9-.4.2-.1.4-.4.7-.6.1-.2.3-.5.4-.7,0-.3,0-.6,0-.8-.1-.2-.3-.4-.5-.5-.2-.1-.4-.3-.7-.4-.3,0-.7-.2-.9-.4-.3,0-.6-.3-.9-.4-.3-.1-.5-.4-.7-.6-.1-.3-.3-.6-.3-.9,0-.4,0-.8.1-1.3.1-.7.4-1.2.9-1.8.4-.6.9-1.2,1.5-1.6.6-.4,1.2-.8,2-1.1.7-.3,1.5-.4,2.4-.4s1.7.1,2.3.4c.7.3,1.1.7,1.5,1.2ZM438.7,391l-.7,1.9h0c1-1.1,2-1.9,3.1-2.4,1-.5,2-.7,2.9-.7s1.1,0,1.5.3c.4.3.7.6.8,1.1.2.4.2,1,.1,1.7,0,.7-.3,1.4-.6,2.3l-3.8,8.9h-3.3l3.7-8.9h0c.4-.9.5-1.6.4-2-.1-.4-.4-.6-1-.6s-.8,0-1.2.3-.9.5-1.4.9c-.5.4-1,.9-1.5,1.4-.4.6-.9,1.2-1.3,1.9l-2.8,7h-3.4l5.9-14.1h1.7c.4,0,.7.1.8.3.1.1.1.4,0,.8h0ZM452.1,398.1c1.8-.1,3.3-.4,4.5-.7,1.2-.3,2.2-.7,3-1,.7-.4,1.3-.9,1.7-1.5.4-.5.7-1.1.9-1.7.1-.4.1-.8,0-1.2,0-.4-.2-.8-.5-1.2-.2-.3-.7-.6-1.1-.8-.5-.2-1.2-.3-1.9-.3s-1.5,0-2.3.3c-.7.2-1.5.6-2.1.9-.7.4-1.3.9-1.9,1.4-.6.6-1.1,1.2-1.6,1.8-.5.6-.9,1.3-1.3,2-.4.7-.7,1.4-.9,2.2-.3.9-.4,1.7-.4,2.4,0,.7.3,1.3.6,1.8.3.5.8.9,1.4,1.2.6.3,1.3.4,2.1.4s1.2,0,1.8-.1c.6-.1,1.1-.3,1.7-.5.6-.2,1.1-.5,1.7-.9.6-.4,1.2-.8,1.8-1.2h0l-.5-1.1c0,0-.1-.1-.3-.2,0,0-.1,0-.2,0-.2,0-.4,0-.6.1-.2,0-.4.1-.6.2-.1.1-.4.3-.6.4-.3,0-.5.2-.8.4-.2,0-.6.2-.9.3-.4,0-.7,0-1.1,0-1.9,0-2.5-1.1-1.8-3.3h0c0-.1,0-.1,0-.1ZM458.6,392.2c.1,0,.3.2.4.3,0,.1.1.2.1.4s0,.3,0,.4c0,.3-.2.6-.4.8-.1.2-.5.5-.9.7s-1,.4-1.7.6c-.7.2-1.7.4-2.9.5.3-.6.7-1.1,1-1.5.4-.5.8-.9,1.2-1.2.4-.3.9-.6,1.3-.8.4-.1.9-.3,1.4-.3.3,0,.5,0,.7.1h0ZM467.7,398.1c1.8-.1,3.3-.4,4.5-.7,1.2-.3,2.2-.7,3-1,.7-.4,1.3-.9,1.7-1.5.4-.5.7-1.1.9-1.7.1-.4.1-.8,0-1.2,0-.4-.2-.8-.5-1.2-.2-.3-.7-.6-1.1-.8-.5-.2-1.2-.3-1.9-.3s-1.5,0-2.2.3c-.8.2-1.5.6-2.2.9-.7.4-1.3.9-1.9,1.4-.6.6-1.1,1.2-1.6,1.8-.5.6-.9,1.3-1.3,2-.4.7-.7,1.4-.9,2.2-.3.9-.4,1.7-.4,2.4,0,.7.3,1.3.6,1.8.3.5.8.9,1.4,1.2.6.3,1.3.4,2.1.4s1.2,0,1.8-.1c.6-.1,1.1-.3,1.7-.5.6-.2,1.2-.5,1.7-.9.6-.4,1.2-.8,1.8-1.2h0l-.5-1.1c0,0-.1-.1-.3-.2,0,0-.1,0-.2,0-.2,0-.4,0-.6.1-.2,0-.4.1-.6.2-.1.1-.4.3-.6.4-.3,0-.5.2-.7.4-.3,0-.7.2-.9.3-.4,0-.7,0-1.1,0-1.9,0-2.5-1.1-1.8-3.3h0c0-.1,0-.1,0-.1ZM474.2,392.2c.1,0,.3.2.4.3,0,.1.1.2.1.4s0,.3,0,.4c0,.3-.2.6-.4.8-.1.2-.4.5-.9.7-.4.2-1,.4-1.7.6-.7.2-1.7.4-2.9.5.3-.6.7-1.1,1-1.5.4-.5.8-.9,1.2-1.2.4-.3.9-.6,1.3-.8.4-.1.9-.3,1.4-.3.3,0,.5,0,.7.1h0ZM495,383.7l-3.1,7.3c-.3-.4-.6-.7-1.1-.9-.4-.2-.9-.3-1.6-.3s-1.2,0-1.9.3c-.7.3-1.3.6-2,1-.7.4-1.2.9-1.8,1.5-.6.6-1.2,1.2-1.7,2-.5.7-.9,1.4-1.3,2.2-.4.7-.7,1.5-.9,2.3-.3.9-.4,1.7-.4,2.3s0,1.2.3,1.6c.2.4.5.8.9,1,.4.2.9.3,1.5.3s.9,0,1.5-.2c.5-.1,1-.4,1.5-.7.4-.3,1-.7,1.5-1,.5-.4.9-.9,1.5-1.4h0l-.7,2c0,.3,0,.6,0,.8.1.2.4.3.8.3h1.8l8.6-20.4h-3.3,0ZM489.5,396.6c-.4.7-.9,1.4-1.4,2-.5.7-1,1.2-1.5,1.6-.5.4-1,.8-1.5,1.1-.4.2-.9.3-1.2.3-.6,0-.9-.2-1.2-.7-.1-.5-.1-1.2.2-2.3.2-.7.5-1.5.9-2.3.4-.7.9-1.5,1.4-2,.6-.6,1.2-1.1,1.7-1.5.6-.4,1.2-.6,1.8-.6s.7,0,1.1.2c.4.1.7.4.9.7h0l-1.4,3.3ZM509.1,391.4l-1.2,1.2h0c-.2.1-.3.3-.4.3,0,0-.2,0-.4,0s-.3,0-.4,0c-.1-.1-.3-.2-.5-.4-.1,0-.4-.2-.7-.3-.2,0-.5-.1-.9-.1-.7,0-1.3.1-1.8.5-.4.3-.8.7-.9,1.2,0,.4,0,.7.1.9.2.2.5.4.9.6.4.2.7.4,1.2.6.4.1.8.4,1.2.7.3.3.5.7.7,1,.1.4.1,1,0,1.7-.1.7-.5,1.3-.9,1.9-.4.7-1,1.2-1.7,1.7-.7.4-1.3.8-2.1,1.1s-1.7.4-2.5.4-.9,0-1.2,0c-.4-.1-.8-.2-1.1-.4-.3-.2-.6-.4-.8-.6-.3-.2-.4-.4-.6-.7l1.2-1.3h0c.1-.1.3-.3.4-.4.1,0,.4-.1.5-.1.2,0,.4,0,.5.2.1,0,.2.2.4.4.1.1.4.3.7.4.2.1.6.2,1.1.2s.7,0,1-.1c.3,0,.6-.2.9-.4.2-.1.4-.4.7-.6.1-.2.3-.5.4-.7,0-.3,0-.6,0-.8-.1-.2-.3-.4-.5-.5-.2-.1-.4-.3-.7-.4-.3,0-.7-.2-.9-.4-.3,0-.6-.3-.9-.4-.3-.1-.5-.4-.7-.6-.1-.3-.3-.6-.3-.9,0-.4,0-.8.1-1.3.1-.7.4-1.2.9-1.8.4-.6.9-1.2,1.5-1.6.6-.4,1.2-.8,2-1.1.7-.3,1.5-.4,2.4-.4s1.7.1,2.3.4c.6.3,1.1.7,1.5,1.2ZM526.3,401.5h3.3l-1.1,2.5h-10.2l1-2.5h3.6l5-11.8h0c0-.2.1-.5.3-.7,0-.2.1-.4.3-.7l-3.6,2.4h0c-.1.1-.4.2-.5.3h-.5c0,0-.2,0-.3-.1,0,0-.1-.1-.1-.2l-.4-1.5,7.8-5.2h2.7l-7.3,17.5ZM547.9,391.4l-1.2,1.2h0c-.1.1-.3.3-.4.3-.1,0-.3,0-.4,0s-.3,0-.4,0c-.1-.1-.3-.2-.5-.4-.1,0-.4-.2-.7-.3-.2,0-.5-.1-.9-.1-.7,0-1.3.1-1.8.5-.4.3-.8.7-.9,1.2,0,.4,0,.7.1.9.2.2.5.4.9.6.4.2.7.4,1.2.6.4.1.8.4,1.2.7.3.3.5.7.7,1,.1.4,0,1,0,1.7-.2.7-.6,1.3-1,1.9-.4.7-1,1.2-1.6,1.7-.7.4-1.4.8-2.2,1.1s-1.7.4-2.5.4-.9,0-1.2,0c-.4-.1-.8-.2-1.1-.4-.3-.2-.6-.4-.8-.6-.3-.2-.4-.4-.6-.7l1.2-1.3h0c.1-.1.3-.3.4-.4.1,0,.4-.1.6-.1s.3,0,.4.2c.1,0,.3.2.4.4.1.1.4.3.7.4.2.1.6.2,1.1.2s.7,0,1-.1c.4,0,.7-.2.9-.4.2-.1.4-.4.7-.6.1-.2.3-.5.4-.7,0-.3,0-.6,0-.8-.1-.2-.3-.4-.5-.5-.2-.1-.4-.3-.7-.4-.3,0-.7-.2-.9-.4-.3,0-.6-.3-.9-.4-.3-.1-.5-.4-.7-.6-.1-.3-.3-.6-.3-.9,0-.4,0-.8.1-1.3.1-.7.4-1.2.9-1.8.4-.6.9-1.2,1.5-1.6.6-.4,1.2-.8,2-1.1.7-.3,1.5-.4,2.4-.4s1.7.1,2.3.4c.7.3,1.1.7,1.5,1.2h0ZM549.1,403.4c-.4-.5-.5-1.3-.3-2.3,0,0,0-.1,0-.2,0,0,0-.2.1-.4,0-.1.1-.4.3-.7,0-.2.3-.7.4-1.1l2.6-6.3h-1.3c-.1,0-.3,0-.4-.1,0,0,0-.3,0-.6l.6-1.3,2.3-.4,2.3-3.9h0c0-.1.2-.3.4-.4.2,0,.4-.1.6-.1h1.8l-1.9,4.4h3.4l-1,2.4h-3.4l-2.6,6.2h0c-.1.4-.2.7-.4.9,0,.2-.1.4-.1.5,0,.1-.1.2-.1.3h0c-.1.4-.1.7,0,.9,0,.2.3.3.7.3s.4,0,.5,0,.3-.1.4-.1c.1,0,.2-.1.4-.2,0,0,.1,0,.2,0,.1,0,.2,0,.2,0,0,0,0,.1,0,.2l.3,1.7h0c-.7.4-1.3.7-2,.9-.7.2-1.3.3-2,.3-1,0-1.7-.2-2.1-.8h0Z"/>
        </g>
      </g>
    </g>
  </g>
</svg>